<svg width="413" height="353" viewBox="0 0 413 353" fill="none" xmlns="http://www.w3.org/2000/svg">
<g filter="url(#filter0_d_0_1)">
<rect x="4" width="405" height="345" rx="15" fill="#FDFDFD"/>
</g>
<path d="M101.452 230.26V225.74H108.472V224.04H101.452V219.74H109.332V218H99.4516V232H109.612V230.26H101.452ZM112.57 232H114.49V217.16H112.57V232ZM129.147 221.3C127.587 221.3 126.227 221.9 125.367 223.08V221.4H123.527V235.88H125.447V230.4C126.327 231.54 127.647 232.12 129.147 232.12C132.247 232.12 134.507 229.96 134.507 226.7C134.507 223.46 132.247 221.3 129.147 221.3ZM128.987 230.44C126.967 230.44 125.427 228.96 125.427 226.7C125.427 224.46 126.967 222.98 128.987 222.98C131.027 222.98 132.567 224.46 132.567 226.7C132.567 228.96 131.027 230.44 128.987 230.44ZM145.12 221.4V226.88C145.12 229.16 143.84 230.4 141.84 230.4C140.02 230.4 138.98 229.36 138.98 227.28V221.4H137.06V227.5C137.06 230.62 138.88 232.12 141.62 232.12C143.12 232.12 144.44 231.5 145.22 230.4V232H147.04V221.4H145.12ZM160.275 226.76C160.275 223.5 158.095 221.3 155.035 221.3C151.975 221.3 149.715 223.56 149.715 226.7C149.715 229.86 151.995 232.12 155.415 232.12C157.175 232.12 158.635 231.52 159.595 230.4L158.535 229.16C157.755 230.02 156.715 230.44 155.475 230.44C153.375 230.44 151.875 229.2 151.635 227.34H160.235C160.255 227.16 160.275 226.92 160.275 226.76ZM155.035 222.92C156.895 222.92 158.235 224.18 158.435 225.96H151.635C151.835 224.16 153.195 222.92 155.035 222.92ZM168.561 221.3C167.061 221.3 165.741 221.86 164.861 223V217.16H162.941V232H164.781V230.32C165.641 231.52 167.001 232.12 168.561 232.12C171.661 232.12 173.921 229.94 173.921 226.7C173.921 223.46 171.661 221.3 168.561 221.3ZM168.401 230.44C166.381 230.44 164.841 228.96 164.841 226.7C164.841 224.44 166.381 222.98 168.401 222.98C170.441 222.98 171.981 224.44 171.981 226.7C171.981 228.96 170.441 230.44 168.401 230.44ZM176.574 232H178.494V217.16H176.574V232ZM186.7 232.12C189.88 232.12 192.2 229.86 192.2 226.7C192.2 223.54 189.88 221.3 186.7 221.3C183.52 221.3 181.18 223.54 181.18 226.7C181.18 229.86 183.52 232.12 186.7 232.12ZM186.7 230.44C184.66 230.44 183.12 228.96 183.12 226.7C183.12 224.44 184.66 222.98 186.7 222.98C188.74 222.98 190.26 224.44 190.26 226.7C190.26 228.96 188.74 230.44 186.7 230.44ZM208.306 217.16V223C207.426 221.86 206.106 221.3 204.606 221.3C201.506 221.3 199.246 223.46 199.246 226.7C199.246 229.94 201.506 232.12 204.606 232.12C206.166 232.12 207.526 231.52 208.386 230.32V232H210.226V217.16H208.306ZM204.766 230.44C202.726 230.44 201.186 228.96 201.186 226.7C201.186 224.44 202.726 222.98 204.766 222.98C206.786 222.98 208.326 224.44 208.326 226.7C208.326 228.96 206.786 230.44 204.766 230.44ZM223.439 226.76C223.439 223.5 221.259 221.3 218.199 221.3C215.139 221.3 212.879 223.56 212.879 226.7C212.879 229.86 215.159 232.12 218.579 232.12C220.339 232.12 221.799 231.52 222.759 230.4L221.699 229.16C220.919 230.02 219.879 230.44 218.639 230.44C216.539 230.44 215.039 229.2 214.799 227.34H223.399C223.419 227.16 223.439 226.92 223.439 226.76ZM218.199 222.92C220.059 222.92 221.399 224.18 221.599 225.96H214.799C214.999 224.16 216.359 222.92 218.199 222.92ZM230.725 232.12C232.625 232.12 234.205 231.32 235.045 229.84L233.585 228.92C232.905 229.96 231.865 230.44 230.705 230.44C228.625 230.44 227.065 229 227.065 226.7C227.065 224.44 228.625 222.98 230.705 222.98C231.865 222.98 232.905 223.46 233.585 224.5L235.045 223.56C234.205 222.08 232.625 221.3 230.725 221.3C227.465 221.3 225.125 223.54 225.125 226.7C225.125 229.86 227.465 232.12 230.725 232.12ZM238.491 219.36C239.251 219.36 239.791 218.8 239.791 218.08C239.791 217.4 239.231 216.86 238.491 216.86C237.751 216.86 237.191 217.42 237.191 218.12C237.191 218.82 237.751 219.36 238.491 219.36ZM237.531 232H239.451V221.4H237.531V232ZM251.197 217.16V223C250.317 221.86 248.997 221.3 247.497 221.3C244.397 221.3 242.137 223.46 242.137 226.7C242.137 229.94 244.397 232.12 247.497 232.12C249.057 232.12 250.417 231.52 251.277 230.32V232H253.117V217.16H251.197ZM247.657 230.44C245.617 230.44 244.077 228.96 244.077 226.7C244.077 224.44 245.617 222.98 247.657 222.98C249.677 222.98 251.217 224.44 251.217 226.7C251.217 228.96 249.677 230.44 247.657 230.44ZM266.33 226.76C266.33 223.5 264.15 221.3 261.09 221.3C258.03 221.3 255.77 223.56 255.77 226.7C255.77 229.86 258.05 232.12 261.47 232.12C263.23 232.12 264.69 231.52 265.65 230.4L264.59 229.16C263.81 230.02 262.77 230.44 261.53 230.44C259.43 230.44 257.93 229.2 257.69 227.34H266.29C266.31 227.16 266.33 226.92 266.33 226.76ZM261.09 222.92C262.95 222.92 264.29 224.18 264.49 225.96H257.69C257.89 224.16 259.25 222.92 261.09 222.92ZM281.867 221.4L278.207 229.88L274.507 221.4H272.507L277.187 231.98L276.847 232.72C276.327 233.94 275.747 234.36 274.827 234.36C274.107 234.36 273.447 234.08 272.927 233.58L272.107 235.02C272.767 235.66 273.807 236 274.827 236C276.447 236 277.667 235.3 278.607 233.06L283.747 221.4H281.867ZM290.91 232H292.83V217.16H290.91V232ZM300.356 221.3C298.656 221.3 297.076 221.78 295.976 222.66L296.776 224.1C297.596 223.4 298.876 222.96 300.136 222.96C302.036 222.96 302.976 223.9 302.976 225.52V225.9H299.936C296.776 225.9 295.676 227.3 295.676 229C295.676 230.84 297.196 232.12 299.596 232.12C301.256 232.12 302.436 231.56 303.076 230.6V232H304.896V225.6C304.896 222.7 303.256 221.3 300.356 221.3ZM299.916 230.64C298.456 230.64 297.576 229.98 297.576 228.92C297.576 228.02 298.116 227.28 300.016 227.28H302.976V228.76C302.496 229.98 301.356 230.64 299.916 230.64ZM311.489 232.12C314.309 232.12 316.069 230.9 316.069 228.98C316.069 224.86 309.349 226.9 309.349 224.4C309.349 223.56 310.169 222.94 311.849 222.94C312.889 222.94 313.949 223.16 314.909 223.78L315.729 222.26C314.809 221.66 313.249 221.3 311.869 221.3C309.149 221.3 307.449 222.58 307.449 224.48C307.449 228.7 314.149 226.64 314.149 229.02C314.149 229.92 313.409 230.46 311.629 230.46C310.249 230.46 308.809 230 307.909 229.36L307.109 230.88C307.989 231.58 309.729 232.12 311.489 232.12ZM90.7877 245.3C89.2277 245.3 87.8677 245.9 87.0077 247.08V245.4H85.1677V259.88H87.0877V254.4C87.9677 255.54 89.2877 256.12 90.7877 256.12C93.8877 256.12 96.1477 253.96 96.1477 250.7C96.1477 247.46 93.8877 245.3 90.7877 245.3ZM90.6277 254.44C88.6077 254.44 87.0677 252.96 87.0677 250.7C87.0677 248.46 88.6077 246.98 90.6277 246.98C92.6677 246.98 94.2077 248.46 94.2077 250.7C94.2077 252.96 92.6677 254.44 90.6277 254.44ZM100.64 247.18V245.4H98.8005V256H100.72V250.72C100.72 248.4 102 247.14 104.06 247.14C104.2 247.14 104.34 247.14 104.5 247.16V245.3C102.64 245.3 101.32 245.94 100.64 247.18ZM111.309 256.12C114.489 256.12 116.809 253.86 116.809 250.7C116.809 247.54 114.489 245.3 111.309 245.3C108.129 245.3 105.789 247.54 105.789 250.7C105.789 253.86 108.129 256.12 111.309 256.12ZM111.309 254.44C109.269 254.44 107.729 252.96 107.729 250.7C107.729 248.44 109.269 246.98 111.309 246.98C113.349 246.98 114.869 248.44 114.869 250.7C114.869 252.96 113.349 254.44 111.309 254.44ZM125.085 245.3C123.525 245.3 122.165 245.9 121.305 247.08V245.4H119.465V259.88H121.385V254.4C122.265 255.54 123.585 256.12 125.085 256.12C128.185 256.12 130.445 253.96 130.445 250.7C130.445 247.46 128.185 245.3 125.085 245.3ZM124.925 254.44C122.905 254.44 121.365 252.96 121.365 250.7C121.365 248.46 122.905 246.98 124.925 246.98C126.965 246.98 128.505 248.46 128.505 250.7C128.505 252.96 126.965 254.44 124.925 254.44ZM141.057 245.4V250.88C141.057 253.16 139.777 254.4 137.777 254.4C135.957 254.4 134.917 253.36 134.917 251.28V245.4H132.997V251.5C132.997 254.62 134.817 256.12 137.557 256.12C139.057 256.12 140.377 255.5 141.157 254.4V256H142.977V245.4H141.057ZM156.213 250.76C156.213 247.5 154.033 245.3 150.973 245.3C147.913 245.3 145.653 247.56 145.653 250.7C145.653 253.86 147.933 256.12 151.353 256.12C153.113 256.12 154.573 255.52 155.533 254.4L154.473 253.16C153.693 254.02 152.653 254.44 151.413 254.44C149.313 254.44 147.813 253.2 147.573 251.34H156.173C156.193 251.16 156.213 250.92 156.213 250.76ZM150.973 246.92C152.833 246.92 154.173 248.18 154.373 249.96H147.573C147.773 248.16 149.133 246.92 150.973 246.92ZM161.919 256.12C164.739 256.12 166.499 254.9 166.499 252.98C166.499 248.86 159.779 250.9 159.779 248.4C159.779 247.56 160.599 246.94 162.279 246.94C163.319 246.94 164.379 247.16 165.339 247.78L166.159 246.26C165.239 245.66 163.679 245.3 162.299 245.3C159.579 245.3 157.879 246.58 157.879 248.48C157.879 252.7 164.579 250.64 164.579 253.02C164.579 253.92 163.839 254.46 162.059 254.46C160.679 254.46 159.239 254 158.339 253.36L157.539 254.88C158.419 255.58 160.159 256.12 161.919 256.12ZM174.258 254C173.858 254.32 173.318 254.5 172.758 254.5C171.698 254.5 171.098 253.86 171.098 252.72V246.98H174.138V245.4H171.098V243.08H169.178V245.4H167.378V246.98H169.178V252.8C169.178 254.94 170.398 256.12 172.538 256.12C173.398 256.12 174.278 255.88 174.858 255.38L174.258 254ZM181.039 245.3C179.339 245.3 177.759 245.78 176.659 246.66L177.459 248.1C178.279 247.4 179.559 246.96 180.819 246.96C182.719 246.96 183.659 247.9 183.659 249.52V249.9H180.619C177.459 249.9 176.359 251.3 176.359 253C176.359 254.84 177.879 256.12 180.279 256.12C181.939 256.12 183.119 255.56 183.759 254.6V256H185.579V249.6C185.579 246.7 183.939 245.3 181.039 245.3ZM180.599 254.64C179.139 254.64 178.259 253.98 178.259 252.92C178.259 252.02 178.799 251.28 180.699 251.28H183.659V252.76C183.179 253.98 182.039 254.64 180.599 254.64ZM192.173 256.12C194.993 256.12 196.753 254.9 196.753 252.98C196.753 248.86 190.033 250.9 190.033 248.4C190.033 247.56 190.853 246.94 192.533 246.94C193.573 246.94 194.633 247.16 195.593 247.78L196.413 246.26C195.493 245.66 193.933 245.3 192.553 245.3C189.833 245.3 188.133 246.58 188.133 248.48C188.133 252.7 194.833 250.64 194.833 253.02C194.833 253.92 194.093 254.46 192.312 254.46C190.933 254.46 189.493 254 188.593 253.36L187.793 254.88C188.673 255.58 190.413 256.12 192.173 256.12ZM217.783 245.3C215.983 245.3 214.503 246.06 213.703 247.26C213.003 245.94 211.643 245.3 210.023 245.3C208.423 245.3 207.123 245.9 206.363 246.98V245.4H204.523V256H206.443V250.54C206.443 248.24 207.703 247.02 209.623 247.02C211.363 247.02 212.363 248.04 212.363 250.12V256H214.283V250.54C214.283 248.24 215.543 247.02 217.463 247.02C219.203 247.02 220.203 248.04 220.203 250.12V256H222.123V249.9C222.123 246.78 220.363 245.3 217.783 245.3ZM233.316 241.26H230.876L228.156 243.86H229.956L233.316 241.26ZM229.516 245.3C227.816 245.3 226.236 245.78 225.136 246.66L225.936 248.1C226.756 247.4 228.036 246.96 229.296 246.96C231.196 246.96 232.136 247.9 232.136 249.52V249.9H229.096C225.936 249.9 224.836 251.3 224.836 253C224.836 254.84 226.356 256.12 228.756 256.12C230.416 256.12 231.596 255.56 232.236 254.6V256H234.056V249.6C234.056 246.7 232.416 245.3 229.516 245.3ZM229.076 254.64C227.616 254.64 226.736 253.98 226.736 252.92C226.736 252.02 227.276 251.28 229.176 251.28H232.136V252.76C231.656 253.98 230.516 254.64 229.076 254.64ZM240.649 256.12C243.469 256.12 245.229 254.9 245.229 252.98C245.229 248.86 238.509 250.9 238.509 248.4C238.509 247.56 239.329 246.94 241.009 246.94C242.049 246.94 243.109 247.16 244.069 247.78L244.889 246.26C243.969 245.66 242.409 245.3 241.029 245.3C238.309 245.3 236.609 246.58 236.609 248.48C236.609 252.7 243.309 250.64 243.309 253.02C243.309 253.92 242.569 254.46 240.789 254.46C239.409 254.46 237.969 254 237.069 253.36L236.269 254.88C237.149 255.58 238.889 256.12 240.649 256.12ZM260.5 245.4L256.78 253.9L253.14 245.4H251.14L255.78 256H257.74L262.38 245.4H260.5ZM268.419 256.12C271.599 256.12 273.919 253.86 273.919 250.7C273.919 247.54 271.599 245.3 268.419 245.3C265.239 245.3 262.899 247.54 262.899 250.7C262.899 253.86 265.239 256.12 268.419 256.12ZM268.419 254.44C266.379 254.44 264.839 252.96 264.839 250.7C264.839 248.44 266.379 246.98 268.419 246.98C270.459 246.98 271.979 248.44 271.979 250.7C271.979 252.96 270.459 254.44 268.419 254.44ZM281.934 254C281.534 254.32 280.994 254.5 280.434 254.5C279.374 254.5 278.774 253.86 278.774 252.72V246.98H281.814V245.4H278.774V243.08H276.854V245.4H275.054V246.98H276.854V252.8C276.854 254.94 278.074 256.12 280.214 256.12C281.074 256.12 281.954 255.88 282.534 255.38L281.934 254ZM288.715 245.3C287.015 245.3 285.435 245.78 284.335 246.66L285.135 248.1C285.955 247.4 287.235 246.96 288.495 246.96C290.395 246.96 291.335 247.9 291.335 249.52V249.9H288.295C285.135 249.9 284.035 251.3 284.035 253C284.035 254.84 285.555 256.12 287.955 256.12C289.615 256.12 290.795 255.56 291.435 254.6V256H293.255V249.6C293.255 246.7 291.615 245.3 288.715 245.3ZM288.275 254.64C286.815 254.64 285.935 253.98 285.935 252.92C285.935 252.02 286.475 251.28 288.375 251.28H291.335V252.76C290.855 253.98 289.715 254.64 288.275 254.64ZM304.947 241.16V247C304.067 245.86 302.747 245.3 301.247 245.3C298.147 245.3 295.887 247.46 295.887 250.7C295.887 253.94 298.147 256.12 301.247 256.12C302.807 256.12 304.167 255.52 305.027 254.32V256H306.867V241.16H304.947ZM301.407 254.44C299.367 254.44 297.827 252.96 297.827 250.7C297.827 248.44 299.367 246.98 301.407 246.98C303.427 246.98 304.967 248.44 304.967 250.7C304.967 252.96 303.427 254.44 301.407 254.44ZM314.36 245.3C312.66 245.3 311.08 245.78 309.98 246.66L310.78 248.1C311.6 247.4 312.88 246.96 314.14 246.96C316.04 246.96 316.98 247.9 316.98 249.52V249.9H313.94C310.78 249.9 309.68 251.3 309.68 253C309.68 254.84 311.2 256.12 313.6 256.12C315.26 256.12 316.44 255.56 317.08 254.6V256H318.9V249.6C318.9 246.7 317.26 245.3 314.36 245.3ZM313.92 254.64C312.46 254.64 311.58 253.98 311.58 252.92C311.58 252.02 312.12 251.28 314.02 251.28H316.98V252.76C316.5 253.98 315.36 254.64 313.92 254.64ZM325.493 256.12C328.313 256.12 330.073 254.9 330.073 252.98C330.073 248.86 323.353 250.9 323.353 248.4C323.353 247.56 324.173 246.94 325.853 246.94C326.893 246.94 327.953 247.16 328.913 247.78L329.733 246.26C328.813 245.66 327.253 245.3 325.873 245.3C323.153 245.3 321.453 246.58 321.453 248.48C321.453 252.7 328.153 250.64 328.153 253.02C328.153 253.92 327.413 254.46 325.633 254.46C324.253 254.46 322.813 254 321.913 253.36L321.113 254.88C321.993 255.58 323.733 256.12 325.493 256.12ZM92.026 280.12C94.846 280.12 96.606 278.9 96.606 276.98C96.606 272.86 89.886 274.9 89.886 272.4C89.886 271.56 90.706 270.94 92.386 270.94C93.426 270.94 94.486 271.16 95.446 271.78L96.266 270.26C95.346 269.66 93.786 269.3 92.406 269.3C89.686 269.3 87.986 270.58 87.986 272.48C87.986 276.7 94.686 274.64 94.686 277.02C94.686 277.92 93.946 278.46 92.166 278.46C90.786 278.46 89.346 278 88.446 277.36L87.646 278.88C88.526 279.58 90.266 280.12 92.026 280.12ZM108.586 274.76C108.586 271.5 106.406 269.3 103.346 269.3C100.286 269.3 98.0255 271.56 98.0255 274.7C98.0255 277.86 100.306 280.12 103.726 280.12C105.486 280.12 106.946 279.52 107.906 278.4L106.846 277.16C106.066 278.02 105.026 278.44 103.786 278.44C101.686 278.44 100.186 277.2 99.9455 275.34H108.546C108.566 275.16 108.586 274.92 108.586 274.76ZM103.346 270.92C105.206 270.92 106.546 272.18 106.746 273.96H99.9455C100.146 272.16 101.506 270.92 103.346 270.92ZM122.603 269.08C121.163 269.08 120.003 269.54 119.223 270.48V269.24H116.243V283.88H119.363V278.86C120.163 279.74 121.263 280.16 122.603 280.16C125.623 280.16 127.963 278 127.963 274.62C127.963 271.24 125.623 269.08 122.603 269.08ZM122.063 277.6C120.503 277.6 119.323 276.48 119.323 274.62C119.323 272.76 120.503 271.64 122.063 271.64C123.623 271.64 124.803 272.76 124.803 274.62C124.803 276.48 123.623 277.6 122.063 277.6ZM135.171 280.16C138.591 280.16 141.071 277.86 141.071 274.62C141.071 271.38 138.591 269.08 135.171 269.08C131.751 269.08 129.251 271.38 129.251 274.62C129.251 277.86 131.751 280.16 135.171 280.16ZM135.171 277.6C133.611 277.6 132.411 276.48 132.411 274.62C132.411 272.76 133.611 271.64 135.171 271.64C136.731 271.64 137.911 272.76 137.911 274.62C137.911 276.48 136.731 277.6 135.171 277.6ZM149.697 269.08C148.237 269.08 146.977 269.58 146.137 270.5V269.24H143.157V280H146.277V274.68C146.277 272.7 147.357 271.78 148.857 271.78C150.237 271.78 151.037 272.58 151.037 274.32V280H154.157V273.84C154.157 270.56 152.237 269.08 149.697 269.08ZM164.942 265.16V270.38C164.162 269.5 163.042 269.08 161.722 269.08C158.682 269.08 156.342 271.24 156.342 274.62C156.342 278 158.682 280.16 161.722 280.16C163.162 280.16 164.302 279.7 165.082 278.76V280H168.062V265.16H164.942ZM162.262 277.6C160.702 277.6 159.502 276.48 159.502 274.62C159.502 272.76 160.702 271.64 162.262 271.64C163.802 271.64 165.002 272.76 165.002 274.62C165.002 276.48 163.802 277.6 162.262 277.6ZM173.93 270.66V269.24H170.95V280H174.07V274.92C174.07 272.86 175.21 271.92 176.93 271.92C177.17 271.92 177.37 271.94 177.63 271.96V269.08C175.97 269.08 174.69 269.62 173.93 270.66ZM188.326 264.98H184.966L182.266 267.86H184.706L188.326 264.98ZM183.766 269.08C182.046 269.08 180.306 269.54 179.126 270.38L180.246 272.56C181.026 271.94 182.206 271.56 183.346 271.56C185.026 271.56 185.826 272.34 185.826 273.68H183.346C180.066 273.68 178.726 275 178.726 276.9C178.726 278.76 180.226 280.16 182.746 280.16C184.326 280.16 185.446 279.64 186.026 278.66V280H188.946V273.86C188.946 270.6 187.046 269.08 183.766 269.08ZM183.526 278.06C182.426 278.06 181.766 277.54 181.766 276.76C181.766 276.04 182.226 275.5 183.686 275.5H185.826V276.6C185.466 277.58 184.566 278.06 183.526 278.06ZM198.31 269.08C196.85 269.08 195.59 269.58 194.75 270.5V269.24H191.77V280H194.89V274.68C194.89 272.7 195.97 271.78 197.47 271.78C198.85 271.78 199.65 272.58 199.65 274.32V280H202.77V273.84C202.77 270.56 200.85 269.08 198.31 269.08ZM221.802 274.66C221.802 271.2 219.362 269.08 216.202 269.08C212.922 269.08 210.462 271.4 210.462 274.62C210.462 277.82 212.882 280.16 216.602 280.16C218.542 280.16 220.042 279.56 221.042 278.42L219.382 276.62C218.642 277.32 217.822 277.66 216.682 277.66C215.042 277.66 213.902 276.84 213.602 275.5H221.742C221.762 275.24 221.802 274.9 221.802 274.66ZM216.222 271.44C217.622 271.44 218.642 272.32 218.862 273.68H213.562C213.782 272.3 214.802 271.44 216.222 271.44ZM230.419 269.08C228.959 269.08 227.699 269.58 226.859 270.5V269.24H223.879V280H226.999V274.68C226.999 272.7 228.079 271.78 229.579 271.78C230.959 271.78 231.759 272.58 231.759 274.32V280H234.879V273.84C234.879 270.56 232.959 269.08 230.419 269.08ZM257.152 269.08C255.532 269.08 254.132 269.74 253.272 270.84C252.512 269.66 251.232 269.08 249.732 269.08C248.352 269.08 247.152 269.56 246.352 270.48V269.24H243.372V280H246.492V274.6C246.492 272.68 247.472 271.78 248.852 271.78C250.152 271.78 250.892 272.58 250.892 274.32V280H254.012V274.6C254.012 272.68 254.992 271.78 256.392 271.78C257.652 271.78 258.432 272.58 258.432 274.32V280H261.552V273.84C261.552 270.56 259.712 269.08 257.152 269.08ZM268.688 269.08C266.968 269.08 265.228 269.54 264.048 270.38L265.168 272.56C265.948 271.94 267.128 271.56 268.268 271.56C269.948 271.56 270.748 272.34 270.748 273.68H268.268C264.988 273.68 263.648 275 263.648 276.9C263.648 278.76 265.148 280.16 267.668 280.16C269.248 280.16 270.368 279.64 270.948 278.66V280H273.868V273.86C273.868 270.6 271.968 269.08 268.688 269.08ZM268.448 278.06C267.348 278.06 266.688 277.54 266.688 276.76C266.688 276.04 267.148 275.5 268.608 275.5H270.748V276.6C270.388 277.58 269.488 278.06 268.448 278.06ZM279.672 270.66V269.24H276.692V280H279.812V274.92C279.812 272.86 280.952 271.92 282.672 271.92C282.912 271.92 283.112 271.94 283.372 271.96V269.08C281.712 269.08 280.432 269.62 279.672 270.66ZM290.329 280.16C292.589 280.16 294.369 279.16 295.149 277.44L292.729 276.12C292.149 277.16 291.289 277.6 290.309 277.6C288.729 277.6 287.489 276.5 287.489 274.62C287.489 272.74 288.729 271.64 290.309 271.64C291.289 271.64 292.149 272.1 292.729 273.12L295.149 271.82C294.369 270.06 292.589 269.08 290.329 269.08C286.829 269.08 284.329 271.38 284.329 274.62C284.329 277.86 286.829 280.16 290.329 280.16ZM303.408 269.08C302.028 269.08 300.828 269.52 299.988 270.36V265.16H296.868V280H299.988V274.68C299.988 272.7 301.068 271.78 302.568 271.78C303.948 271.78 304.748 272.58 304.748 274.32V280H307.868V273.84C307.868 270.56 305.948 269.08 303.408 269.08ZM315.036 269.08C313.316 269.08 311.576 269.54 310.396 270.38L311.516 272.56C312.296 271.94 313.476 271.56 314.616 271.56C316.296 271.56 317.096 272.34 317.096 273.68H314.616C311.336 273.68 309.996 275 309.996 276.9C309.996 278.76 311.496 280.16 314.016 280.16C315.596 280.16 316.716 279.64 317.296 278.66V280H320.216V273.86C320.216 270.6 318.316 269.08 315.036 269.08ZM314.796 278.06C313.696 278.06 313.036 277.54 313.036 276.76C313.036 276.04 313.496 275.5 314.956 275.5H317.096V276.6C316.736 277.58 315.836 278.06 314.796 278.06ZM324.22 280.16C325.3 280.16 326.16 279.34 326.16 278.2C326.16 277.04 325.3 276.28 324.22 276.28C323.14 276.28 322.28 277.04 322.28 278.2C322.28 279.34 323.14 280.16 324.22 280.16Z" fill="black"/>
<path d="M64.0697 48.4L70.3897 41.2V37H50.7897V42.2H62.7097L56.9497 48.72V53H59.9097C63.5897 53 65.1497 54.32 65.1497 56.44C65.1497 58.72 63.1497 60.04 59.9097 60.04C56.9897 60.04 54.0297 59.12 51.9097 57.52L49.3897 62.48C52.1097 64.4 56.1497 65.48 60.0697 65.48C68.0297 65.48 71.6697 61.16 71.6697 56.44C71.6697 52.32 69.1097 49.2 64.0697 48.4ZM78.3416 65.32C80.5016 65.32 82.2216 63.68 82.2216 61.4C82.2216 59.08 80.5016 57.56 78.3416 57.56C76.1816 57.56 74.4616 59.08 74.4616 61.4C74.4616 63.68 76.1816 65.32 78.3416 65.32Z" fill="black"/>
<g clip-path="url(#clip0_0_1)">
<path d="M164.783 106.987C153.207 106.987 143.79 97.5698 143.79 85.9934C143.79 74.417 153.207 65 164.783 65C176.36 65 185.777 74.417 185.777 85.9934C185.777 97.5698 176.36 106.987 164.783 106.987ZM164.783 68.457C155.113 68.457 147.247 76.3229 147.247 85.9934C147.247 95.6639 155.113 103.53 164.783 103.53C174.454 103.53 182.32 95.6639 182.32 85.9934C182.32 76.3229 174.452 68.457 164.783 68.457Z" fill="#AD8952"/>
<path d="M164.784 91.1721C159.93 91.1721 155.982 87.2241 155.982 82.3705C155.982 77.5168 159.93 73.5688 164.784 73.5688C169.637 73.5688 173.585 77.5168 173.585 82.3705C173.585 87.2241 169.637 91.1721 164.784 91.1721ZM164.784 77.0259C161.836 77.0259 159.439 79.4228 159.439 82.3705C159.439 85.3181 161.836 87.715 164.784 87.715C167.731 87.715 170.128 85.3181 170.128 82.3705C170.128 79.4228 167.731 77.0259 164.784 77.0259Z" fill="#AD8952"/>
<path d="M164.784 106.987C158.817 106.987 153.11 104.431 149.128 99.9759C148.734 99.5357 148.593 98.925 148.752 98.358C150.508 92.0916 156.268 87.7173 162.758 87.7173H166.809C173.299 87.7173 179.059 92.0939 180.815 98.358C180.974 98.9273 180.833 99.5357 180.439 99.9759C176.457 104.431 170.75 106.987 164.784 106.987ZM152.377 98.3834C155.657 101.665 160.126 103.53 164.784 103.53C169.441 103.53 173.91 101.665 177.19 98.3834C175.579 94.0944 171.437 91.172 166.809 91.172H162.758C158.13 91.172 153.988 94.0921 152.377 98.3834Z" fill="#AD8952"/>
<path d="M240.797 91.1721C235.943 91.1721 231.995 87.2241 231.995 82.3705C231.995 77.5168 235.943 73.5688 240.797 73.5688C245.65 73.5688 249.598 77.5168 249.598 82.3705C249.598 87.2241 245.65 91.1721 240.797 91.1721ZM240.797 77.0259C237.849 77.0259 235.452 79.4228 235.452 82.3705C235.452 85.3181 237.849 87.715 240.797 87.715C243.744 87.715 246.141 85.3181 246.141 82.3705C246.141 79.4228 243.744 77.0259 240.797 77.0259Z" fill="#AD8952"/>
<path d="M240.797 106.987C234.83 106.987 229.124 104.431 225.141 99.9759C224.747 99.5357 224.606 98.925 224.765 98.358C226.522 92.0916 232.281 87.7173 238.771 87.7173H242.823C249.313 87.7173 255.072 92.0939 256.828 98.358C256.987 98.9273 256.847 99.5357 256.453 99.9759C252.47 104.431 246.764 106.987 240.797 106.987ZM228.391 98.3834C231.67 101.665 236.139 103.53 240.797 103.53C245.455 103.53 249.923 101.665 253.203 98.3834C251.592 94.0944 247.45 91.172 242.823 91.172H238.771C234.143 91.172 230.004 94.0921 228.391 98.3834Z" fill="#AD8952"/>
<path d="M164.784 167.185C159.93 167.185 155.982 163.237 155.982 158.384C155.982 153.53 159.93 149.582 164.784 149.582C169.637 149.582 173.585 153.53 173.585 158.384C173.585 163.237 169.637 167.185 164.784 167.185ZM164.784 153.039C161.836 153.039 159.439 155.436 159.439 158.384C159.439 161.331 161.836 163.728 164.784 163.728C167.731 163.728 170.128 161.331 170.128 158.384C170.128 155.436 167.731 153.039 164.784 153.039Z" fill="#AD8952"/>
<path d="M164.784 183C158.817 183 153.11 180.444 149.128 175.989C148.734 175.549 148.593 174.938 148.752 174.371C150.508 168.105 156.268 163.73 162.758 163.73H166.809C173.299 163.73 179.059 168.107 180.815 174.371C180.974 174.938 180.833 175.549 180.439 175.989C176.457 180.444 170.75 183 164.784 183ZM152.377 174.397C155.657 177.678 160.126 179.543 164.784 179.543C169.441 179.543 173.91 177.678 177.19 174.397C175.579 170.108 171.437 167.185 166.809 167.185H162.758C158.13 167.185 153.988 170.105 152.377 174.397Z" fill="#AD8952"/>
<path d="M240.797 183C229.22 183 219.803 173.583 219.803 162.007C219.803 150.43 229.22 141.013 240.797 141.013C252.373 141.013 261.79 150.43 261.79 162.007C261.79 173.583 252.373 183 240.797 183ZM240.797 144.47C231.126 144.47 223.26 152.336 223.26 162.007C223.26 171.677 231.128 179.543 240.797 179.543C250.465 179.543 258.333 171.677 258.333 162.007C258.333 152.336 250.467 144.47 240.797 144.47Z" fill="#AD8952"/>
<path d="M240.797 167.185C235.943 167.185 231.995 163.237 231.995 158.384C231.995 153.53 235.943 149.582 240.797 149.582C245.65 149.582 249.598 153.53 249.598 158.384C249.598 163.237 245.65 167.185 240.797 167.185ZM240.797 153.039C237.849 153.039 235.452 155.436 235.452 158.384C235.452 161.331 237.849 163.728 240.797 163.728C243.744 163.728 246.141 161.331 246.141 158.384C246.141 155.436 243.744 153.039 240.797 153.039Z" fill="#AD8952"/>
<path d="M240.797 183C234.83 183 229.124 180.444 225.141 175.989C224.747 175.549 224.606 174.938 224.765 174.371C226.522 168.105 232.281 163.73 238.771 163.73H242.823C249.313 163.73 255.072 168.107 256.828 174.371C256.987 174.938 256.847 175.549 256.453 175.989C252.47 180.444 246.764 183 240.797 183ZM228.391 174.397C231.673 177.678 236.139 179.543 240.797 179.543C245.455 179.543 249.923 177.678 253.203 174.397C251.592 170.108 247.45 167.185 242.823 167.185H238.771C234.143 167.185 230.004 170.105 228.391 174.397Z" fill="#AD8952"/>
<path d="M248.93 137.639C248.787 137.639 248.642 137.621 248.499 137.584C247.575 137.346 247.017 136.404 247.257 135.48C248.218 131.751 248.704 127.888 248.704 124C248.704 120.112 248.218 116.249 247.257 112.52C247.019 111.596 247.575 110.654 248.499 110.416C249.423 110.177 250.366 110.734 250.603 111.658C251.636 115.669 252.159 119.819 252.159 124C252.159 128.178 251.636 132.331 250.603 136.342C250.4 137.121 249.7 137.639 248.93 137.639Z" fill="#AD8952"/>
<path d="M202.79 173.369C198.612 173.369 194.459 172.846 190.446 171.813C189.522 171.576 188.964 170.633 189.204 169.709C189.441 168.785 190.384 168.229 191.308 168.467C195.037 169.428 198.902 169.914 202.79 169.914C206.678 169.914 210.543 169.428 214.272 168.467C215.196 168.229 216.139 168.785 216.376 169.709C216.614 170.633 216.058 171.576 215.134 171.813C211.122 172.843 206.969 173.369 202.79 173.369Z" fill="#AD8952"/>
<path d="M156.65 137.639C155.88 137.639 155.178 137.121 154.977 136.342C153.945 132.331 153.421 128.178 153.421 124C153.421 119.822 153.945 115.671 154.977 111.658C155.097 111.197 155.401 110.803 155.818 110.575C156.238 110.345 156.731 110.299 157.185 110.446L157.243 110.465C158.155 110.748 158.665 111.716 158.381 112.629C158.337 112.772 158.275 112.905 158.201 113.025C157.326 116.597 156.881 120.287 156.881 124C156.881 127.888 157.367 131.751 158.328 135.48C158.565 136.404 158.01 137.346 157.086 137.584C156.938 137.621 156.793 137.639 156.65 137.639Z" fill="#AD8952"/>
<path d="M214.701 79.591C214.558 79.591 214.412 79.5726 214.267 79.5357C210.538 78.5769 206.676 78.0883 202.788 78.0883C198.9 78.0883 195.037 78.5746 191.308 79.5357C190.381 79.7731 189.441 79.2176 189.204 78.2934C188.966 77.3693 189.522 76.4267 190.446 76.1893C194.456 75.1568 198.609 74.6336 202.788 74.6336C206.968 74.6336 211.119 75.1568 215.129 76.1893C216.053 76.4267 216.611 77.3693 216.371 78.2934C216.173 79.0724 215.47 79.591 214.701 79.591Z" fill="#AD8952"/>
<path d="M207.266 147.738H198.314C196.353 147.738 194.758 146.143 194.758 144.182V140.386C194.758 140.349 194.74 140.317 194.712 140.303C194.027 139.962 193.357 139.575 192.718 139.149C192.691 139.13 192.654 139.13 192.622 139.149L189.331 141.048C188.508 141.523 187.549 141.649 186.632 141.403C185.714 141.156 184.947 140.568 184.472 139.746L179.997 131.993C179.522 131.17 179.395 130.211 179.642 129.294C179.888 128.377 180.476 127.609 181.299 127.134L184.59 125.235C184.622 125.217 184.641 125.178 184.638 125.136C184.613 124.761 184.601 124.378 184.601 124C184.601 123.624 184.613 123.242 184.638 122.864C184.641 122.822 184.622 122.785 184.59 122.767L181.299 120.866C179.6 119.886 179.017 117.706 179.997 116.007L184.472 108.254C184.947 107.432 185.714 106.844 186.632 106.597C187.549 106.351 188.508 106.477 189.331 106.952L192.622 108.851C192.654 108.87 192.691 108.87 192.718 108.851C193.359 108.425 194.03 108.035 194.714 107.697C194.742 107.683 194.76 107.648 194.76 107.614V103.818C194.76 101.857 196.355 100.262 198.317 100.262H207.268C209.229 100.262 210.824 101.857 210.824 103.818V107.614C210.824 107.651 210.842 107.683 210.87 107.697C211.555 108.038 212.225 108.425 212.864 108.851C212.891 108.87 212.928 108.87 212.961 108.851L216.252 106.952C217.074 106.477 218.033 106.351 218.95 106.597C219.868 106.844 220.635 107.432 221.11 108.254L225.586 116.007C226.06 116.83 226.187 117.789 225.941 118.706C225.694 119.623 225.106 120.391 224.283 120.866L220.992 122.765C220.96 122.783 220.942 122.822 220.944 122.864C220.969 123.249 220.981 123.631 220.981 124C220.981 124.369 220.969 124.751 220.944 125.134C220.942 125.178 220.96 125.215 220.992 125.233L224.283 127.132C225.982 128.112 226.565 130.292 225.586 131.99L221.11 139.743C220.635 140.566 219.868 141.154 218.95 141.4C218.033 141.647 217.074 141.52 216.252 141.045L212.961 139.146C212.928 139.128 212.891 139.128 212.864 139.146C212.223 139.573 211.552 139.96 210.868 140.301C210.84 140.315 210.822 140.349 210.822 140.384V144.18C210.824 146.143 209.227 147.738 207.266 147.738ZM192.67 135.673C193.355 135.673 194.037 135.874 194.634 136.272C195.15 136.616 195.694 136.932 196.247 137.206C197.459 137.81 198.213 139.027 198.213 140.384V144.18C198.213 144.235 198.257 144.279 198.312 144.279H207.263C207.319 144.279 207.362 144.235 207.362 144.18V140.386C207.362 139.029 208.116 137.81 209.328 137.208C209.884 136.932 210.428 136.618 210.944 136.272C212.073 135.519 213.507 135.473 214.687 136.155L217.978 138.054C217.987 138.061 218.015 138.075 218.054 138.063C218.093 138.052 218.109 138.026 218.114 138.017L222.589 130.264C222.617 130.216 222.601 130.156 222.553 130.128L219.262 128.229C218.082 127.547 217.404 126.277 217.492 124.913C217.512 124.604 217.521 124.297 217.521 124.002C217.521 123.707 217.512 123.401 217.492 123.09C217.404 121.725 218.082 120.455 219.262 119.773L222.553 117.874C222.562 117.87 222.589 117.853 222.599 117.814C222.608 117.775 222.594 117.75 222.589 117.738L218.114 109.985C218.109 109.976 218.093 109.948 218.054 109.939C218.015 109.93 217.987 109.944 217.978 109.948L214.687 111.847C213.507 112.53 212.073 112.483 210.944 111.73C210.428 111.384 209.884 111.071 209.328 110.794C208.116 110.193 207.362 108.973 207.362 107.616V103.82C207.362 103.765 207.319 103.721 207.263 103.721H198.312C198.257 103.721 198.213 103.765 198.213 103.82V107.616C198.213 108.973 197.459 110.193 196.247 110.794C195.694 111.068 195.15 111.384 194.631 111.73C193.502 112.483 192.066 112.527 190.889 111.847L187.597 109.948C187.588 109.944 187.563 109.928 187.521 109.939C187.482 109.951 187.466 109.976 187.461 109.985L182.986 117.738C182.958 117.787 182.974 117.846 183.023 117.874L186.314 119.773C187.494 120.453 188.171 121.725 188.084 123.09C188.063 123.394 188.054 123.7 188.054 124C188.054 124.302 188.063 124.608 188.084 124.91C188.171 126.277 187.494 127.547 186.316 128.229L183.025 130.128C183.016 130.135 182.988 130.149 182.979 130.188C182.967 130.227 182.983 130.255 182.988 130.264L187.464 138.017C187.471 138.026 187.484 138.054 187.524 138.063C187.563 138.075 187.591 138.059 187.6 138.054L190.891 136.155C191.446 135.832 192.059 135.673 192.67 135.673ZM202.79 133.546C197.526 133.546 193.244 129.264 193.244 124C193.244 118.736 197.526 114.454 202.79 114.454C208.054 114.454 212.336 118.736 212.336 124C212.336 129.264 208.054 133.546 202.79 133.546ZM202.79 117.911C199.432 117.911 196.701 120.642 196.701 124C196.701 127.358 199.432 130.089 202.79 130.089C206.148 130.089 208.879 127.358 208.879 124C208.879 120.642 206.148 117.911 202.79 117.911Z" fill="#AD8952"/>
<path d="M164.783 183C153.207 183 143.79 173.583 143.79 162.007C143.79 157.243 145.431 152.58 148.409 148.874C151.34 145.226 155.452 142.633 159.985 141.571C160.914 141.352 161.845 141.93 162.062 142.859C162.278 143.788 161.702 144.719 160.773 144.936C156.987 145.821 153.553 147.99 151.103 151.039C148.581 154.178 147.247 157.971 147.247 162.007C147.247 171.677 155.113 179.543 164.783 179.543C174.454 179.543 182.32 171.677 182.32 162.007C182.32 153.615 176.348 146.376 168.118 144.791C167.18 144.611 166.567 143.705 166.747 142.767C166.927 141.829 167.833 141.216 168.771 141.396C178.623 143.293 185.775 151.96 185.775 162.007C185.777 173.583 176.36 183 164.783 183Z" fill="#AD8952"/>
<path d="M240.797 106.987C229.22 106.987 219.803 97.5698 219.803 85.9934C219.803 74.417 229.22 65 240.797 65C250.486 65 258.868 71.5637 261.179 80.9646C261.407 81.8911 260.84 82.8268 259.914 83.0549C258.988 83.2831 258.052 82.7161 257.821 81.7896C255.89 73.9399 248.891 68.457 240.797 68.457C231.126 68.457 223.26 76.3229 223.26 85.9934C223.26 95.6639 231.126 103.53 240.797 103.53C249.282 103.53 256.538 97.4754 258.047 89.1347C258.218 88.1944 259.117 87.5721 260.055 87.7404C260.995 87.9109 261.617 88.8097 261.447 89.75C259.642 99.7386 250.956 106.987 240.797 106.987Z" fill="#AD8952"/>
</g>
<defs>
<filter id="filter0_d_0_1" x="0" y="0" width="413" height="353" filterUnits="userSpaceOnUse" color-interpolation-filters="sRGB">
<feFlood flood-opacity="0" result="BackgroundImageFix"/>
<feColorMatrix in="SourceAlpha" type="matrix" values="0 0 0 0 0 0 0 0 0 0 0 0 0 0 0 0 0 0 127 0" result="hardAlpha"/>
<feOffset dy="4"/>
<feGaussianBlur stdDeviation="2"/>
<feComposite in2="hardAlpha" operator="out"/>
<feColorMatrix type="matrix" values="0 0 0 0 0 0 0 0 0 0 0 0 0 0 0 0 0 0 0.25 0"/>
<feBlend mode="normal" in2="BackgroundImageFix" result="effect1_dropShadow_0_1"/>
<feBlend mode="normal" in="SourceGraphic" in2="effect1_dropShadow_0_1" result="shape"/>
</filter>
<clipPath id="clip0_0_1">
<rect width="118" height="118" fill="white" transform="translate(143.79 65)"/>
</clipPath>
</defs>
</svg>
