<svg width="414" height="353" viewBox="0 0 414 353" fill="none" xmlns="http://www.w3.org/2000/svg">
<g filter="url(#filter0_d_0_1)">
<rect x="4" width="406" height="345" rx="15" fill="#FDFDFD"/>
</g>
<path d="M57.8761 232H59.8561V219.74H64.6561V218H53.0761V219.74H57.8761V232ZM74.2605 221.4V226.88C74.2605 229.16 72.9805 230.4 70.9805 230.4C69.1605 230.4 68.1205 229.36 68.1205 227.28V221.4H66.2005V227.5C66.2005 230.62 68.0205 232.12 70.7605 232.12C72.2605 232.12 73.5805 231.5 74.3605 230.4V232H76.1805V221.4H74.2605ZM91.1867 221.08C89.7467 221.08 88.5867 221.54 87.8067 222.48V221.24H84.8267V235.88H87.9467V230.86C88.7467 231.74 89.8467 232.16 91.1867 232.16C94.2067 232.16 96.5467 230 96.5467 226.62C96.5467 223.24 94.2067 221.08 91.1867 221.08ZM90.6467 229.6C89.0867 229.6 87.9067 228.48 87.9067 226.62C87.9067 224.76 89.0867 223.64 90.6467 223.64C92.2067 223.64 93.3867 224.76 93.3867 226.62C93.3867 228.48 92.2067 229.6 90.6467 229.6ZM101.615 222.66V221.24H98.6353V232H101.755V226.92C101.755 224.86 102.895 223.92 104.615 223.92C104.855 223.92 105.055 223.94 105.315 223.96V221.08C103.655 221.08 102.375 221.62 101.615 222.66ZM112.193 232.16C115.613 232.16 118.093 229.86 118.093 226.62C118.093 223.38 115.613 221.08 112.193 221.08C108.773 221.08 106.273 223.38 106.273 226.62C106.273 229.86 108.773 232.16 112.193 232.16ZM112.193 229.6C110.633 229.6 109.433 228.48 109.433 226.62C109.433 224.76 110.633 223.64 112.193 223.64C113.753 223.64 114.933 224.76 114.933 226.62C114.933 228.48 113.753 229.6 112.193 229.6ZM126.538 221.08C125.098 221.08 123.938 221.54 123.158 222.48V221.24H120.178V235.88H123.298V230.86C124.098 231.74 125.198 232.16 126.538 232.16C129.558 232.16 131.898 230 131.898 226.62C131.898 223.24 129.558 221.08 126.538 221.08ZM125.998 229.6C124.438 229.6 123.258 228.48 123.258 226.62C123.258 224.76 124.438 223.64 125.998 223.64C127.558 223.64 128.738 224.76 128.738 226.62C128.738 228.48 127.558 229.6 125.998 229.6ZM141.707 221.24V226.56C141.707 228.54 140.667 229.46 139.227 229.46C137.847 229.46 137.047 228.66 137.047 226.86V221.24H133.927V227.32C133.927 230.64 135.827 232.16 138.527 232.16C139.847 232.16 141.047 231.66 141.867 230.72V232H144.827V221.24H141.707ZM158.257 226.66C158.257 223.2 155.817 221.08 152.657 221.08C149.377 221.08 146.917 223.4 146.917 226.62C146.917 229.82 149.337 232.16 153.057 232.16C154.997 232.16 156.497 231.56 157.497 230.42L155.837 228.62C155.097 229.32 154.277 229.66 153.137 229.66C151.497 229.66 150.357 228.84 150.057 227.5H158.197C158.217 227.24 158.257 226.9 158.257 226.66ZM152.677 223.44C154.077 223.44 155.097 224.32 155.317 225.68H150.017C150.237 224.3 151.257 223.44 152.677 223.44ZM163.955 232.16C167.175 232.16 169.035 230.74 169.035 228.74C169.035 224.5 162.535 226.28 162.535 224.44C162.535 223.88 163.135 223.44 164.535 223.44C165.515 223.44 166.575 223.64 167.635 224.24L168.675 222.02C167.655 221.42 166.015 221.08 164.535 221.08C161.395 221.08 159.555 222.52 159.555 224.56C159.555 228.86 166.055 227.06 166.055 228.82C166.055 229.42 165.515 229.8 164.075 229.8C162.755 229.8 161.295 229.38 160.335 228.76L159.295 231C160.295 231.66 162.135 232.16 163.955 232.16ZM177.06 229.28C176.72 229.54 176.26 229.68 175.8 229.68C174.96 229.68 174.46 229.18 174.46 228.26V223.88H177.14V221.48H174.46V218.86H171.34V221.48H169.68V223.88H171.34V228.3C171.34 230.86 172.82 232.16 175.36 232.16C176.32 232.16 177.26 231.94 177.9 231.48L177.06 229.28ZM183.991 221.08C182.271 221.08 180.531 221.54 179.351 222.38L180.471 224.56C181.251 223.94 182.431 223.56 183.571 223.56C185.251 223.56 186.051 224.34 186.051 225.68H183.571C180.291 225.68 178.951 227 178.951 228.9C178.951 230.76 180.451 232.16 182.971 232.16C184.551 232.16 185.671 231.64 186.251 230.66V232H189.171V225.86C189.171 222.6 187.271 221.08 183.991 221.08ZM183.751 230.06C182.651 230.06 181.991 229.54 181.991 228.76C181.991 228.04 182.451 227.5 183.911 227.5H186.051V228.6C185.691 229.58 184.791 230.06 183.751 230.06ZM201.279 232.16C204.499 232.16 206.359 230.74 206.359 228.74C206.359 224.5 199.859 226.28 199.859 224.44C199.859 223.88 200.459 223.44 201.859 223.44C202.839 223.44 203.899 223.64 204.959 224.24L205.999 222.02C204.979 221.42 203.339 221.08 201.859 221.08C198.719 221.08 196.879 222.52 196.879 224.56C196.879 228.86 203.379 227.06 203.379 228.82C203.379 229.42 202.839 229.8 201.399 229.8C200.079 229.8 198.619 229.38 197.659 228.76L196.619 231C197.619 231.66 199.459 232.16 201.279 232.16ZM218.824 226.66C218.824 223.2 216.384 221.08 213.224 221.08C209.944 221.08 207.484 223.4 207.484 226.62C207.484 229.82 209.904 232.16 213.624 232.16C215.564 232.16 217.064 231.56 218.064 230.42L216.404 228.62C215.664 229.32 214.844 229.66 213.704 229.66C212.064 229.66 210.924 228.84 210.624 227.5H218.764C218.784 227.24 218.824 226.9 218.824 226.66ZM213.244 223.44C214.644 223.44 215.664 224.32 215.884 225.68H210.584C210.804 224.3 211.824 223.44 213.244 223.44ZM223.881 222.66V221.24H220.901V232H224.021V226.92C224.021 224.86 225.161 223.92 226.881 223.92C227.121 223.92 227.321 223.94 227.581 223.96V221.08C225.921 221.08 224.641 221.62 223.881 222.66ZM238.278 216.98H234.918L232.218 219.86H234.658L238.278 216.98ZM233.718 221.08C231.998 221.08 230.258 221.54 229.078 222.38L230.198 224.56C230.978 223.94 232.158 223.56 233.298 223.56C234.978 223.56 235.778 224.34 235.778 225.68H233.298C230.018 225.68 228.678 227 228.678 228.9C228.678 230.76 230.178 232.16 232.698 232.16C234.278 232.16 235.398 231.64 235.978 230.66V232H238.898V225.86C238.898 222.6 236.998 221.08 233.718 221.08ZM233.478 230.06C232.378 230.06 231.718 229.54 231.718 228.76C231.718 228.04 232.178 227.5 233.638 227.5H235.778V228.6C235.418 229.58 234.518 230.06 233.478 230.06ZM251.725 221.08C250.005 221.08 248.265 221.54 247.085 222.38L248.205 224.56C248.985 223.94 250.165 223.56 251.305 223.56C252.985 223.56 253.785 224.34 253.785 225.68H251.305C248.025 225.68 246.685 227 246.685 228.9C246.685 230.76 248.185 232.16 250.705 232.16C252.285 232.16 253.405 231.64 253.985 230.66V232H256.905V225.86C256.905 222.6 255.005 221.08 251.725 221.08ZM251.485 230.06C250.385 230.06 249.725 229.54 249.725 228.76C249.725 228.04 250.185 227.5 251.645 227.5H253.785V228.6C253.425 229.58 252.525 230.06 251.485 230.06ZM266.269 221.08C264.809 221.08 263.549 221.58 262.709 222.5V221.24H259.729V232H262.849V226.68C262.849 224.7 263.929 223.78 265.429 223.78C266.809 223.78 267.609 224.58 267.609 226.32V232H270.729V225.84C270.729 222.56 268.809 221.08 266.269 221.08ZM277.897 221.08C276.177 221.08 274.437 221.54 273.257 222.38L274.377 224.56C275.157 223.94 276.337 223.56 277.477 223.56C279.157 223.56 279.957 224.34 279.957 225.68H277.477C274.197 225.68 272.857 227 272.857 228.9C272.857 230.76 274.357 232.16 276.877 232.16C278.457 232.16 279.577 231.64 280.157 230.66V232H283.077V225.86C283.077 222.6 281.177 221.08 277.897 221.08ZM277.657 230.06C276.557 230.06 275.897 229.54 275.897 228.76C275.897 228.04 276.357 227.5 277.817 227.5H279.957V228.6C279.597 229.58 278.697 230.06 277.657 230.06ZM285.901 232H289.021V217.16H285.901V232ZM293.477 219.74C294.637 219.74 295.417 218.98 295.417 217.94C295.417 216.98 294.637 216.26 293.477 216.26C292.317 216.26 291.537 217.02 291.537 218C291.537 218.98 292.317 219.74 293.477 219.74ZM291.917 232H295.037V221.24H291.917V232ZM301.132 229.6L306.612 223.12V221.24H297.332V223.64H302.672L297.192 230.12V232H306.792V229.6H301.132ZM313.132 221.08C311.412 221.08 309.672 221.54 308.492 222.38L309.612 224.56C310.392 223.94 311.572 223.56 312.712 223.56C314.392 223.56 315.192 224.34 315.192 225.68H312.712C309.432 225.68 308.092 227 308.092 228.9C308.092 230.76 309.592 232.16 312.112 232.16C313.692 232.16 314.812 231.64 315.392 230.66V232H318.312V225.86C318.312 222.6 316.412 221.08 313.132 221.08ZM312.892 230.06C311.792 230.06 311.132 229.54 311.132 228.76C311.132 228.04 311.592 227.5 313.052 227.5H315.192V228.6C314.832 229.58 313.932 230.06 312.892 230.06ZM329.093 217.16V222.38C328.313 221.5 327.193 221.08 325.873 221.08C322.833 221.08 320.493 223.24 320.493 226.62C320.493 230 322.833 232.16 325.873 232.16C327.313 232.16 328.453 231.7 329.233 230.76V232H332.213V217.16H329.093ZM326.413 229.6C324.853 229.6 323.653 228.48 323.653 226.62C323.653 224.76 324.853 223.64 326.413 223.64C327.953 223.64 329.153 224.76 329.153 226.62C329.153 228.48 327.953 229.6 326.413 229.6ZM339.44 221.08C337.72 221.08 335.98 221.54 334.8 222.38L335.92 224.56C336.7 223.94 337.88 223.56 339.02 223.56C340.7 223.56 341.5 224.34 341.5 225.68H339.02C335.74 225.68 334.4 227 334.4 228.9C334.4 230.76 335.9 232.16 338.42 232.16C340 232.16 341.12 231.64 341.7 230.66V232H344.62V225.86C344.62 222.6 342.72 221.08 339.44 221.08ZM339.2 230.06C338.1 230.06 337.44 229.54 337.44 228.76C337.44 228.04 337.9 227.5 339.36 227.5H341.5V228.6C341.14 229.58 340.24 230.06 339.2 230.06ZM72.9997 245.4L69.3397 253.88L65.6397 245.4H63.6397L68.3197 255.98L67.9797 256.72C67.4597 257.94 66.8797 258.36 65.9597 258.36C65.2397 258.36 64.5797 258.08 64.0597 257.58L63.2397 259.02C63.8997 259.66 64.9397 260 65.9597 260C67.5797 260 68.7997 259.3 69.7397 257.06L74.8797 245.4H72.9997ZM89.5427 245.4L85.8227 253.9L82.1827 245.4H80.1827L84.8227 256H86.7827L91.4227 245.4H89.5427ZM97.4616 256.12C100.642 256.12 102.962 253.86 102.962 250.7C102.962 247.54 100.642 245.3 97.4616 245.3C94.2816 245.3 91.9416 247.54 91.9416 250.7C91.9416 253.86 94.2816 256.12 97.4616 256.12ZM97.4616 254.44C95.4216 254.44 93.8816 252.96 93.8816 250.7C93.8816 248.44 95.4216 246.98 97.4616 246.98C99.5016 246.98 101.022 248.44 101.022 250.7C101.022 252.96 99.5016 254.44 97.4616 254.44ZM110.977 254C110.577 254.32 110.037 254.5 109.477 254.5C108.417 254.5 107.817 253.86 107.817 252.72V246.98H110.857V245.4H107.817V243.08H105.897V245.4H104.097V246.98H105.897V252.8C105.897 254.94 107.117 256.12 109.257 256.12C110.117 256.12 110.997 255.88 111.577 255.38L110.977 254ZM117.758 245.3C116.058 245.3 114.478 245.78 113.378 246.66L114.178 248.1C114.998 247.4 116.278 246.96 117.538 246.96C119.438 246.96 120.378 247.9 120.378 249.52V249.9H117.338C114.178 249.9 113.078 251.3 113.078 253C113.078 254.84 114.598 256.12 116.998 256.12C118.658 256.12 119.838 255.56 120.478 254.6V256H122.298V249.6C122.298 246.7 120.658 245.3 117.758 245.3ZM117.318 254.64C115.858 254.64 114.978 253.98 114.978 252.92C114.978 252.02 115.518 251.28 117.418 251.28H120.378V252.76C119.898 253.98 118.758 254.64 117.318 254.64ZM133.99 241.16V247C133.11 245.86 131.79 245.3 130.29 245.3C127.19 245.3 124.93 247.46 124.93 250.7C124.93 253.94 127.19 256.12 130.29 256.12C131.85 256.12 133.21 255.52 134.07 254.32V256H135.91V241.16H133.99ZM130.45 254.44C128.41 254.44 126.87 252.96 126.87 250.7C126.87 248.44 128.41 246.98 130.45 246.98C132.47 246.98 134.01 248.44 134.01 250.7C134.01 252.96 132.47 254.44 130.45 254.44ZM143.403 245.3C141.703 245.3 140.123 245.78 139.023 246.66L139.823 248.1C140.643 247.4 141.923 246.96 143.183 246.96C145.083 246.96 146.023 247.9 146.023 249.52V249.9H142.983C139.823 249.9 138.723 251.3 138.723 253C138.723 254.84 140.243 256.12 142.643 256.12C144.303 256.12 145.483 255.56 146.123 254.6V256H147.943V249.6C147.943 246.7 146.303 245.3 143.403 245.3ZM142.963 254.64C141.503 254.64 140.623 253.98 140.623 252.92C140.623 252.02 141.163 251.28 143.063 251.28H146.023V252.76C145.543 253.98 144.403 254.64 142.963 254.64ZM162.487 245.3C160.927 245.3 159.567 245.9 158.707 247.08V245.4H156.867V259.88H158.787V254.4C159.667 255.54 160.987 256.12 162.487 256.12C165.587 256.12 167.847 253.96 167.847 250.7C167.847 247.46 165.587 245.3 162.487 245.3ZM162.327 254.44C160.307 254.44 158.767 252.96 158.767 250.7C158.767 248.46 160.307 246.98 162.327 246.98C164.367 246.98 165.907 248.46 165.907 250.7C165.907 252.96 164.367 254.44 162.327 254.44ZM175.04 256.12C178.22 256.12 180.54 253.86 180.54 250.7C180.54 247.54 178.22 245.3 175.04 245.3C171.86 245.3 169.52 247.54 169.52 250.7C169.52 253.86 171.86 256.12 175.04 256.12ZM175.04 254.44C173 254.44 171.46 252.96 171.46 250.7C171.46 248.44 173 246.98 175.04 246.98C177.08 246.98 178.6 248.44 178.6 250.7C178.6 252.96 177.08 254.44 175.04 254.44ZM185.035 247.18V245.4H183.195V256H185.115V250.72C185.115 248.4 186.395 247.14 188.455 247.14C188.595 247.14 188.735 247.14 188.895 247.16V245.3C187.035 245.3 185.715 245.94 185.035 247.18ZM196.769 256H198.689V241.16H196.769V256ZM206.215 245.3C204.515 245.3 202.935 245.78 201.835 246.66L202.635 248.1C203.455 247.4 204.735 246.96 205.995 246.96C207.895 246.96 208.835 247.9 208.835 249.52V249.9H205.795C202.635 249.9 201.535 251.3 201.535 253C201.535 254.84 203.055 256.12 205.455 256.12C207.115 256.12 208.295 255.56 208.935 254.6V256H210.755V249.6C210.755 246.7 209.115 245.3 206.215 245.3ZM205.775 254.64C204.315 254.64 203.435 253.98 203.435 252.92C203.435 252.02 203.975 251.28 205.875 251.28H208.835V252.76C208.355 253.98 207.215 254.64 205.775 254.64ZM224.299 256.12C226.199 256.12 227.779 255.32 228.619 253.84L227.159 252.92C226.479 253.96 225.439 254.44 224.279 254.44C222.199 254.44 220.639 253 220.639 250.7C220.639 248.44 222.199 246.98 224.279 246.98C225.439 246.98 226.479 247.46 227.159 248.5L228.619 247.56C227.779 246.08 226.199 245.3 224.299 245.3C221.039 245.3 218.699 247.54 218.699 250.7C218.699 253.86 221.039 256.12 224.299 256.12ZM232.065 243.36C232.825 243.36 233.365 242.8 233.365 242.08C233.365 241.4 232.805 240.86 232.065 240.86C231.325 240.86 230.765 241.42 230.765 242.12C230.765 242.82 231.325 243.36 232.065 243.36ZM231.105 256H233.025V245.4H231.105V256ZM244.651 245.4V250.88C244.651 253.16 243.371 254.4 241.371 254.4C239.551 254.4 238.511 253.36 238.511 251.28V245.4H236.591V251.5C236.591 254.62 238.411 256.12 241.151 256.12C242.651 256.12 243.971 255.5 244.751 254.4V256H246.571V245.4H244.651ZM258.306 241.16V247C257.426 245.86 256.106 245.3 254.606 245.3C251.506 245.3 249.246 247.46 249.246 250.7C249.246 253.94 251.506 256.12 254.606 256.12C256.166 256.12 257.526 255.52 258.386 254.32V256H260.226V241.16H258.306ZM254.766 254.44C252.726 254.44 251.186 252.96 251.186 250.7C251.186 248.44 252.726 246.98 254.766 246.98C256.786 246.98 258.326 248.44 258.326 250.7C258.326 252.96 256.786 254.44 254.766 254.44ZM267.719 245.3C266.019 245.3 264.439 245.78 263.339 246.66L264.139 248.1C264.959 247.4 266.239 246.96 267.499 246.96C269.399 246.96 270.339 247.9 270.339 249.52V249.9H267.299C264.139 249.9 263.039 251.3 263.039 253C263.039 254.84 264.559 256.12 266.959 256.12C268.619 256.12 269.799 255.56 270.439 254.6V256H272.259V249.6C272.259 246.7 270.619 245.3 267.719 245.3ZM267.279 254.64C265.819 254.64 264.939 253.98 264.939 252.92C264.939 252.02 265.479 251.28 267.379 251.28H270.339V252.76C269.859 253.98 268.719 254.64 267.279 254.64ZM283.951 241.16V247C283.071 245.86 281.751 245.3 280.251 245.3C277.151 245.3 274.891 247.46 274.891 250.7C274.891 253.94 277.151 256.12 280.251 256.12C281.811 256.12 283.171 255.52 284.031 254.32V256H285.871V241.16H283.951ZM280.411 254.44C278.371 254.44 276.831 252.96 276.831 250.7C276.831 248.44 278.371 246.98 280.411 246.98C282.431 246.98 283.971 248.44 283.971 250.7C283.971 252.96 282.431 254.44 280.411 254.44ZM293.364 245.3C291.664 245.3 290.084 245.78 288.984 246.66L289.784 248.1C290.604 247.4 291.884 246.96 293.144 246.96C295.044 246.96 295.984 247.9 295.984 249.52V249.9H292.944C289.784 249.9 288.684 251.3 288.684 253C288.684 254.84 290.204 256.12 292.604 256.12C294.264 256.12 295.444 255.56 296.084 254.6V256H297.904V249.6C297.904 246.7 296.264 245.3 293.364 245.3ZM292.924 254.64C291.464 254.64 290.584 253.98 290.584 252.92C290.584 252.02 291.124 251.28 293.024 251.28H295.984V252.76C295.504 253.98 294.364 254.64 292.924 254.64ZM307.117 245.3C305.437 245.3 304.077 245.92 303.297 247V245.4H301.457V256H303.377V250.54C303.377 248.24 304.697 247.02 306.737 247.02C308.557 247.02 309.597 248.04 309.597 250.12V256H311.517V249.9C311.517 246.78 309.697 245.3 307.117 245.3ZM314.53 243.86H316.33L319.69 241.26H317.25L314.53 243.86ZM315.07 256H316.99V245.4H315.07V256ZM324.516 245.3C322.816 245.3 321.236 245.78 320.136 246.66L320.936 248.1C321.756 247.4 323.036 246.96 324.296 246.96C326.196 246.96 327.136 247.9 327.136 249.52V249.9H324.096C320.936 249.9 319.836 251.3 319.836 253C319.836 254.84 321.356 256.12 323.756 256.12C325.416 256.12 326.596 255.56 327.236 254.6V256H329.056V249.6C329.056 246.7 327.416 245.3 324.516 245.3ZM324.076 254.64C322.616 254.64 321.736 253.98 321.736 252.92C321.736 252.02 322.276 251.28 324.176 251.28H327.136V252.76C326.656 253.98 325.516 254.64 324.076 254.64ZM333.069 256.12C333.789 256.12 334.389 255.54 334.389 254.74C334.389 253.94 333.789 253.38 333.069 253.38C332.329 253.38 331.709 253.94 331.709 254.74C331.709 255.54 332.329 256.12 333.069 256.12Z" fill="black"/>
<path d="M51.2134 57.72L57.6534 51.64C61.5734 48 62.3334 45.52 62.3334 42.8C62.3334 37.72 58.1734 34.52 51.9334 34.52C46.8934 34.52 42.9734 36.56 40.8134 39.72L45.5334 42.76C46.8934 40.88 48.9334 39.96 51.3334 39.96C54.2934 39.96 55.8134 41.24 55.8134 43.44C55.8134 44.8 55.3734 46.24 52.8934 48.6L42.0934 58.8V63H63.2534V57.72H51.2134ZM69.9978 63.32C72.1578 63.32 73.8778 61.68 73.8778 59.4C73.8778 57.08 72.1578 55.56 69.9978 55.56C67.8378 55.56 66.1178 57.08 66.1178 59.4C66.1178 61.68 67.8378 63.32 69.9978 63.32Z" fill="black"/>
<path d="M254.885 83.902C253.282 82.295 250.681 82.2929 249.076 83.8954L199.792 133.048L182.011 113.736C180.474 112.068 177.877 111.961 176.207 113.496C174.536 115.033 174.431 117.632 175.966 119.3L196.644 141.756C197.4 142.578 198.461 143.057 199.578 143.081C199.609 143.083 199.637 143.083 199.665 143.083C200.752 143.083 201.797 142.652 202.567 141.885L254.876 89.711C256.483 88.1106 256.485 85.5067 254.885 83.902Z" fill="#AD8952"/>
<path d="M253.892 119.392C251.623 119.392 249.784 121.231 249.784 123.5C249.784 149.023 229.023 169.784 203.5 169.784C177.979 169.784 157.216 149.023 157.216 123.5C157.216 97.9794 177.979 77.2161 203.5 77.2161C205.769 77.2161 207.608 75.3774 207.608 73.1081C207.608 70.8387 205.769 69 203.5 69C173.449 69 149 93.4494 149 123.5C149 153.551 173.449 178 203.5 178C233.551 178 258 153.551 258 123.5C258 121.231 256.161 119.392 253.892 119.392Z" fill="#AD8952"/>
<defs>
<filter id="filter0_d_0_1" x="0" y="0" width="414" height="353" filterUnits="userSpaceOnUse" color-interpolation-filters="sRGB">
<feFlood flood-opacity="0" result="BackgroundImageFix"/>
<feColorMatrix in="SourceAlpha" type="matrix" values="0 0 0 0 0 0 0 0 0 0 0 0 0 0 0 0 0 0 127 0" result="hardAlpha"/>
<feOffset dy="4"/>
<feGaussianBlur stdDeviation="2"/>
<feComposite in2="hardAlpha" operator="out"/>
<feColorMatrix type="matrix" values="0 0 0 0 0 0 0 0 0 0 0 0 0 0 0 0 0 0 0.25 0"/>
<feBlend mode="normal" in2="BackgroundImageFix" result="effect1_dropShadow_0_1"/>
<feBlend mode="normal" in="SourceGraphic" in2="effect1_dropShadow_0_1" result="shape"/>
</filter>
</defs>
</svg>
