<svg width="413" height="353" viewBox="0 0 413 353" fill="none" xmlns="http://www.w3.org/2000/svg">
<g filter="url(#filter0_d_0_1)">
<rect x="4" width="405" height="345" rx="15" fill="#FDFDFD"/>
</g>
<g clip-path="url(#clip0_0_1)">
<path d="M261.612 71.1703C260.161 71.0226 258.7 71.3228 257.425 72.0282C256.803 70.0075 255.305 68.3753 253.346 67.5795C251.388 66.786 249.174 66.9123 247.32 67.9273C246.289 64.7296 243.16 62.6923 239.819 63.0354C237.644 63.2832 235.709 64.5247 234.577 66.3976C232.888 65.1466 230.722 64.7248 228.685 65.2467C226.648 65.7709 224.956 67.1863 224.079 69.0973H204.055C203.683 69.0949 203.321 68.9901 203.004 68.7995L194.784 63.8813C193.838 63.3095 192.756 63.0045 191.653 62.9997H161.542C157.821 62.952 154.654 65.6946 154.173 69.3856C154.025 70.8368 154.325 72.2974 155.03 73.5746C153.01 74.1965 151.375 75.6953 150.582 77.654C149.788 79.6127 149.917 81.8263 150.934 83.6801C147.732 84.7095 145.69 87.8405 146.038 91.186C146.283 93.3615 147.527 95.2987 149.4 96.4282C148.368 97.8507 147.894 99.6044 148.07 101.353C148.361 103.784 149.884 105.895 152.1 106.934V126.95C152.097 127.319 151.992 127.681 151.799 127.996L146.841 136.257C146.3 137.198 146.012 138.263 146.002 139.35V169.461C145.955 173.181 148.699 176.348 152.388 176.829C153.839 176.972 155.297 176.674 156.574 175.971C157.196 177.992 158.695 179.626 160.656 180.42C162.617 181.213 164.828 181.085 166.682 180.067C167.623 183.01 170.361 185.004 173.451 184.997C175.903 184.997 178.171 183.706 179.425 181.599C181.116 182.85 183.282 183.272 185.319 182.748C187.357 182.224 189.051 180.808 189.93 178.897H209.943C210.314 178.9 210.676 179.005 210.993 179.195L219.214 184.118C220.16 184.688 221.241 184.99 222.345 184.995H252.455C256.177 185.045 259.343 182.3 259.825 178.611C259.97 177.16 259.672 175.7 258.967 174.425C260.988 173.803 262.622 172.304 263.415 170.345C264.209 168.387 264.08 166.173 263.063 164.319C266.263 163.29 268.305 160.161 267.957 156.818C267.712 154.643 266.468 152.705 264.595 151.576C265.627 150.153 266.101 148.4 265.924 146.651C265.631 144.223 264.109 142.116 261.895 141.077V121.05C261.9 120.68 262.003 120.318 262.193 120.001L267.118 111.783C267.688 110.837 267.99 109.753 267.995 108.65V78.5404C268.045 74.8184 265.3 71.6517 261.612 71.1703ZM150.084 90.7833C149.989 89.9207 150.267 89.0605 150.846 88.4148C151.425 87.769 152.252 87.4021 153.119 87.4021H166.336C167.459 87.4021 168.369 86.4918 168.369 85.3695C168.369 84.2472 167.459 83.337 166.336 83.337H157.187C156.319 83.3394 155.493 82.9724 154.914 82.3291C154.335 81.6857 154.056 80.8255 154.146 79.9629C154.406 78.3426 155.838 77.1727 157.477 77.2394H170.404C171.526 77.2394 172.436 76.3291 172.436 75.2068C172.436 74.0845 171.526 73.1743 170.404 73.1743H161.254C160.387 73.1767 159.56 72.8097 158.981 72.1664C158.402 71.523 158.123 70.6628 158.214 69.8002C158.473 68.1799 159.903 67.0076 161.545 67.0767H191.653C192.024 67.0791 192.387 67.1839 192.701 67.3769L200.924 72.2927C201.87 72.8598 202.952 73.1624 204.055 73.1671H223.264V91.2408L219.743 88.3576C217.1 86.3393 213.383 86.5443 210.977 88.8389C209.19 90.5712 208.57 93.1828 209.385 95.5322H202.568C200.967 95.5394 199.435 96.1732 198.298 97.3003L179.163 116.279L179.122 116.32L178.276 117.159C177.285 118.128 175.696 118.117 174.719 117.135C173.825 116.239 173.739 114.816 174.516 113.818L180.108 106.986C180.606 106.379 180.709 105.538 180.371 104.828C180.035 104.117 179.32 103.665 178.534 103.665H155.443C153.806 103.729 152.378 102.559 152.119 100.941C152.026 100.081 152.302 99.2208 152.881 98.5751C153.46 97.9317 154.285 97.5624 155.152 97.5624H166.334C167.456 97.5624 168.366 96.6521 168.366 95.5298C168.366 94.4075 167.459 93.4997 166.334 93.4997H153.41C151.773 93.564 150.348 92.3988 150.084 90.7833ZM231.399 129.404L212.835 147.814C212.461 148.188 211.956 148.397 211.427 148.4H201.593L183.187 129.842C182.813 129.468 182.601 128.963 182.598 128.434V118.593L201.155 100.188C201.529 99.8141 202.037 99.6021 202.566 99.5997H212.406L230.813 118.157C231.184 118.534 231.394 119.039 231.394 119.568V129.404H231.399ZM183.926 178.885C183.07 178.978 182.215 178.7 181.576 178.12C180.935 177.539 180.568 176.717 180.566 175.852V175.821V164.667C180.566 163.545 179.656 162.635 178.534 162.635C177.411 162.635 176.501 163.545 176.501 164.667V175.85V175.878V177.596C176.556 179.24 175.379 180.665 173.754 180.92C172.898 181.013 172.045 180.734 171.412 180.155C170.771 179.574 170.404 178.75 170.401 177.882V173.815V173.774V164.665C170.401 163.542 169.491 162.632 168.369 162.632C167.247 162.632 166.336 163.542 166.336 164.665V173.815V173.839C166.332 174.701 165.96 175.521 165.317 176.095C164.673 176.669 163.818 176.943 162.96 176.853C161.34 176.593 160.17 175.163 160.237 173.524V169.75V169.719V160.6C160.237 159.477 159.326 158.567 158.204 158.567C157.082 158.567 156.172 159.477 156.172 160.6V169.75V169.769C156.167 170.631 155.8 171.453 155.157 172.028C154.513 172.604 153.658 172.878 152.8 172.788C151.18 172.528 150.01 171.101 150.074 169.461V139.35C150.077 138.983 150.174 138.623 150.353 138.304L155.3 130.076C155.867 129.13 156.167 128.048 156.174 126.947V107.732H174.245L171.359 111.256C169.498 113.52 169.367 116.742 171.035 119.148C172.703 121.555 175.767 122.563 178.538 121.617V128.432C178.545 130.033 179.179 131.565 180.306 132.702L199.268 151.814C199.289 151.838 199.313 151.862 199.337 151.883L200.164 152.717C200.876 153.442 201.084 154.524 200.69 155.462C200.297 156.399 199.378 157.009 198.362 157.006C197.81 157.009 197.271 156.823 196.838 156.48L190.009 150.89C189.401 150.382 188.553 150.273 187.838 150.611C187.121 150.949 186.668 151.674 186.673 152.465V175.557C186.723 177.201 185.548 178.626 183.926 178.885ZM263.913 157.218C264.009 158.081 263.73 158.941 263.151 159.587C262.572 160.233 261.745 160.6 260.878 160.6H247.661C246.539 160.6 245.629 161.51 245.629 162.632C245.629 163.755 246.539 164.665 247.661 164.665H256.811C257.678 164.662 258.505 165.029 259.084 165.673C259.663 166.316 259.941 167.176 259.851 168.039C259.591 169.659 258.159 170.829 256.52 170.762H243.594C242.471 170.762 241.561 171.673 241.561 172.795C241.561 173.917 242.471 174.827 243.594 174.827H252.743C253.611 174.825 254.437 175.192 255.016 175.835C255.595 176.479 255.874 177.339 255.784 178.202C255.524 179.822 254.094 180.994 252.453 180.925H222.347C221.975 180.923 221.613 180.818 221.299 180.625L213.076 175.7C212.13 175.132 211.048 174.83 209.945 174.825H190.735V156.747L194.257 159.63C196.897 161.655 200.619 161.45 203.023 159.149C204.81 157.419 205.432 154.809 204.622 152.46H211.434C213.035 152.453 214.567 151.819 215.704 150.692L234.832 131.72L234.904 131.651L235.731 130.838C236.722 129.869 238.311 129.88 239.288 130.862C240.182 131.758 240.267 133.181 239.491 134.179L233.898 141.011C233.405 141.618 233.303 142.455 233.639 143.162C233.972 143.87 234.685 144.323 235.466 144.327H258.557C260.194 144.263 261.621 145.433 261.881 147.051C261.974 147.911 261.698 148.771 261.119 149.417C260.54 150.061 259.715 150.43 258.848 150.43H247.666C246.543 150.43 245.633 151.34 245.633 152.462C245.633 153.585 246.543 154.495 247.666 154.495H260.597C262.229 154.44 263.651 155.605 263.913 157.218ZM263.93 108.652C263.928 109.021 263.823 109.386 263.632 109.7L258.705 117.924C258.138 118.869 257.835 119.951 257.83 121.052V140.267H239.753L242.638 136.743C244.733 134.124 244.523 130.352 242.152 127.981C240.377 126.278 237.808 125.684 235.464 126.44V119.568C235.457 117.966 234.823 116.434 233.696 115.298L214.725 96.1565L214.687 96.1184L213.848 95.2725C213.371 94.8031 213.104 94.1597 213.109 93.4902C213.114 92.8206 213.388 92.182 213.872 91.7173C214.779 90.85 216.183 90.7642 217.191 91.5148L224.02 97.1049C224.627 97.5957 225.461 97.6958 226.169 97.3622C226.874 97.0286 227.327 96.3186 227.332 95.537V72.4404C227.27 70.8034 228.437 69.3761 230.055 69.1164C230.915 69.0234 231.775 69.3022 232.419 69.8812C233.062 70.4603 233.429 71.2847 233.429 72.1497V83.3322C233.429 84.4545 234.339 85.3648 235.461 85.3648C236.584 85.3648 237.494 84.4545 237.494 83.3322V70.4078C237.43 68.7709 238.599 67.3436 240.217 67.0838C241.078 66.9909 241.938 67.2697 242.581 67.8487C243.224 68.4277 243.591 69.2522 243.591 70.1171V83.3346C243.591 84.4569 244.501 85.3671 245.624 85.3671C246.746 85.3671 247.656 84.4569 247.656 83.3346V74.1846C247.654 73.3173 248.021 72.4928 248.666 71.9114C249.31 71.3324 250.17 71.0536 251.033 71.1465C252.653 71.4062 253.823 72.8359 253.756 74.4753V87.4021C253.756 88.5244 254.666 89.4346 255.788 89.4346C256.911 89.4346 257.821 88.5244 257.821 87.4021V78.2497C257.818 77.3823 258.185 76.5579 258.831 75.9765C259.474 75.3975 260.335 75.1187 261.197 75.2116C262.815 75.4713 263.985 76.8986 263.921 78.538L263.93 108.652Z" fill="#AD8952"/>
</g>
<path d="M86.1814 232L83.0414 227.5C84.8614 226.72 85.9214 225.18 85.9214 223.08C85.9214 219.94 83.5814 218 79.8414 218H73.7814V232H77.0214V228.1H79.8414H80.0014L82.7014 232H86.1814ZM82.6414 223.08C82.6414 224.6 81.6414 225.52 79.6614 225.52H77.0214V220.64H79.6614C81.6414 220.64 82.6414 221.54 82.6414 223.08ZM98.8084 226.66C98.8084 223.2 96.3684 221.08 93.2084 221.08C89.9284 221.08 87.4684 223.4 87.4684 226.62C87.4684 229.82 89.8884 232.16 93.6084 232.16C95.5484 232.16 97.0484 231.56 98.0484 230.42L96.3884 228.62C95.6484 229.32 94.8284 229.66 93.6884 229.66C92.0484 229.66 90.9084 228.84 90.6084 227.5H98.7484C98.7684 227.24 98.8084 226.9 98.8084 226.66ZM93.2284 223.44C94.6284 223.44 95.6484 224.32 95.8684 225.68H90.5684C90.7884 224.3 91.8084 223.44 93.2284 223.44ZM104.933 221.08C103.213 221.08 101.473 221.54 100.293 222.38L101.413 224.56C102.193 223.94 103.373 223.56 104.513 223.56C106.193 223.56 106.993 224.34 106.993 225.68H104.513C101.233 225.68 99.8926 227 99.8926 228.9C99.8926 230.76 101.393 232.16 103.913 232.16C105.493 232.16 106.613 231.64 107.193 230.66V232H110.113V225.86C110.113 222.6 108.213 221.08 104.933 221.08ZM104.693 230.06C103.593 230.06 102.933 229.54 102.933 228.76C102.933 228.04 103.393 227.5 104.853 227.5H106.993V228.6C106.633 229.58 105.733 230.06 104.693 230.06ZM112.936 232H116.056V217.16H112.936V232ZM120.512 219.74C121.672 219.74 122.452 218.98 122.452 217.94C122.452 216.98 121.672 216.26 120.512 216.26C119.352 216.26 118.572 217.02 118.572 218C118.572 218.98 119.352 219.74 120.512 219.74ZM118.952 232H122.072V221.24H118.952V232ZM128.168 229.6L133.648 223.12V221.24H124.368V223.64H129.708L124.228 230.12V232H133.828V229.6H128.168ZM140.167 221.08C138.447 221.08 136.707 221.54 135.527 222.38L136.647 224.56C137.427 223.94 138.607 223.56 139.747 223.56C141.427 223.56 142.227 224.34 142.227 225.68H139.747C136.467 225.68 135.127 227 135.127 228.9C135.127 230.76 136.627 232.16 139.147 232.16C140.727 232.16 141.847 231.64 142.427 230.66V232H145.347V225.86C145.347 222.6 143.447 221.08 140.167 221.08ZM139.927 230.06C138.827 230.06 138.167 229.54 138.167 228.76C138.167 228.04 138.627 227.5 140.087 227.5H142.227V228.6C141.867 229.58 140.967 230.06 139.927 230.06ZM159.935 229.28C159.595 229.54 159.135 229.68 158.675 229.68C157.835 229.68 157.335 229.18 157.335 228.26V223.88H160.015V221.48H157.335V218.86H154.215V221.48H152.555V223.88H154.215V228.3C154.215 230.86 155.695 232.16 158.235 232.16C159.195 232.16 160.135 231.94 160.775 231.48L159.935 229.28ZM170.246 221.24V226.56C170.246 228.54 169.206 229.46 167.766 229.46C166.386 229.46 165.586 228.66 165.586 226.86V221.24H162.466V227.32C162.466 230.64 164.366 232.16 167.066 232.16C168.386 232.16 169.586 231.66 170.406 230.72V232H173.366V221.24H170.246ZM188.281 221.08C186.841 221.08 185.681 221.54 184.901 222.48V221.24H181.921V235.88H185.041V230.86C185.841 231.74 186.941 232.16 188.281 232.16C191.301 232.16 193.641 230 193.641 226.62C193.641 223.24 191.301 221.08 188.281 221.08ZM187.741 229.6C186.181 229.6 185.001 228.48 185.001 226.62C185.001 224.76 186.181 223.64 187.741 223.64C189.301 223.64 190.481 224.76 190.481 226.62C190.481 228.48 189.301 229.6 187.741 229.6ZM198.709 222.66V221.24H195.729V232H198.849V226.92C198.849 224.86 199.989 223.92 201.709 223.92C201.949 223.92 202.149 223.94 202.409 223.96V221.08C200.749 221.08 199.469 221.62 198.709 222.66ZM209.287 232.16C212.707 232.16 215.187 229.86 215.187 226.62C215.187 223.38 212.707 221.08 209.287 221.08C205.867 221.08 203.367 223.38 203.367 226.62C203.367 229.86 205.867 232.16 209.287 232.16ZM209.287 229.6C207.727 229.6 206.527 228.48 206.527 226.62C206.527 224.76 207.727 223.64 209.287 223.64C210.847 223.64 212.027 224.76 212.027 226.62C212.027 228.48 210.847 229.6 209.287 229.6ZM223.632 221.08C222.192 221.08 221.032 221.54 220.252 222.48V221.24H217.272V235.88H220.392V230.86C221.192 231.74 222.292 232.16 223.632 232.16C226.652 232.16 228.992 230 228.992 226.62C228.992 223.24 226.652 221.08 223.632 221.08ZM223.092 229.6C221.532 229.6 220.352 228.48 220.352 226.62C220.352 224.76 221.532 223.64 223.092 223.64C224.652 223.64 225.832 224.76 225.832 226.62C225.832 228.48 224.652 229.6 223.092 229.6ZM238.801 221.24V226.56C238.801 228.54 237.761 229.46 236.321 229.46C234.941 229.46 234.141 228.66 234.141 226.86V221.24H231.021V227.32C231.021 230.64 232.921 232.16 235.621 232.16C236.941 232.16 238.141 231.66 238.961 230.72V232H241.921V221.24H238.801ZM255.351 226.66C255.351 223.2 252.911 221.08 249.751 221.08C246.471 221.08 244.011 223.4 244.011 226.62C244.011 229.82 246.431 232.16 250.151 232.16C252.091 232.16 253.591 231.56 254.591 230.42L252.931 228.62C252.191 229.32 251.371 229.66 250.231 229.66C248.591 229.66 247.451 228.84 247.151 227.5H255.291C255.311 227.24 255.351 226.9 255.351 226.66ZM249.771 223.44C251.171 223.44 252.191 224.32 252.411 225.68H247.111C247.331 224.3 248.351 223.44 249.771 223.44ZM261.049 232.16C264.269 232.16 266.129 230.74 266.129 228.74C266.129 224.5 259.629 226.28 259.629 224.44C259.629 223.88 260.229 223.44 261.629 223.44C262.609 223.44 263.669 223.64 264.729 224.24L265.769 222.02C264.749 221.42 263.109 221.08 261.629 221.08C258.489 221.08 256.649 222.52 256.649 224.56C256.649 228.86 263.149 227.06 263.149 228.82C263.149 229.42 262.609 229.8 261.169 229.8C259.849 229.8 258.389 229.38 257.429 228.76L256.389 231C257.389 231.66 259.229 232.16 261.049 232.16ZM274.154 229.28C273.814 229.54 273.354 229.68 272.894 229.68C272.054 229.68 271.554 229.18 271.554 228.26V223.88H274.234V221.48H271.554V218.86H268.434V221.48H266.774V223.88H268.434V228.3C268.434 230.86 269.914 232.16 272.454 232.16C273.414 232.16 274.354 231.94 274.994 231.48L274.154 229.28ZM281.085 221.08C279.365 221.08 277.625 221.54 276.445 222.38L277.565 224.56C278.345 223.94 279.525 223.56 280.665 223.56C282.345 223.56 283.145 224.34 283.145 225.68H280.665C277.385 225.68 276.045 227 276.045 228.9C276.045 230.76 277.545 232.16 280.065 232.16C281.645 232.16 282.765 231.64 283.345 230.66V232H286.265V225.86C286.265 222.6 284.365 221.08 281.085 221.08ZM280.845 230.06C279.745 230.06 279.085 229.54 279.085 228.76C279.085 228.04 279.545 227.5 281.005 227.5H283.145V228.6C282.785 229.58 281.885 230.06 280.845 230.06ZM300.46 221.3C298.9 221.3 297.54 221.9 296.68 223.08V221.4H294.84V235.88H296.76V230.4C297.64 231.54 298.96 232.12 300.46 232.12C303.56 232.12 305.82 229.96 305.82 226.7C305.82 223.46 303.56 221.3 300.46 221.3ZM300.3 230.44C298.28 230.44 296.74 228.96 296.74 226.7C296.74 224.46 298.28 222.98 300.3 222.98C302.34 222.98 303.88 224.46 303.88 226.7C303.88 228.96 302.34 230.44 300.3 230.44ZM312.235 221.3C310.535 221.3 308.955 221.78 307.855 222.66L308.655 224.1C309.475 223.4 310.755 222.96 312.015 222.96C313.915 222.96 314.855 223.9 314.855 225.52V225.9H311.815C308.655 225.9 307.555 227.3 307.555 229C307.555 230.84 309.075 232.12 311.475 232.12C313.135 232.12 314.315 231.56 314.955 230.6V232H316.775V225.6C316.775 222.7 315.135 221.3 312.235 221.3ZM311.795 230.64C310.335 230.64 309.455 229.98 309.455 228.92C309.455 228.02 309.995 227.28 311.895 227.28H314.855V228.76C314.375 229.98 313.235 230.64 311.795 230.64ZM322.168 223.18V221.4H320.328V232H322.248V226.72C322.248 224.4 323.528 223.14 325.588 223.14C325.728 223.14 325.868 223.14 326.028 223.16V221.3C324.168 221.3 322.848 221.94 322.168 223.18ZM332.235 221.3C330.535 221.3 328.955 221.78 327.855 222.66L328.655 224.1C329.475 223.4 330.755 222.96 332.015 222.96C333.915 222.96 334.855 223.9 334.855 225.52V225.9H331.815C328.655 225.9 327.555 227.3 327.555 229C327.555 230.84 329.075 232.12 331.475 232.12C333.135 232.12 334.315 231.56 334.955 230.6V232H336.775V225.6C336.775 222.7 335.135 221.3 332.235 221.3ZM331.795 230.64C330.335 230.64 329.455 229.98 329.455 228.92C329.455 228.02 329.995 227.28 331.895 227.28H334.855V228.76C334.375 229.98 333.235 230.64 331.795 230.64ZM54.0416 245.3C52.3416 245.3 50.7616 245.78 49.6616 246.66L50.4616 248.1C51.2816 247.4 52.5616 246.96 53.8216 246.96C55.7216 246.96 56.6616 247.9 56.6616 249.52V249.9H53.6216C50.4616 249.9 49.3616 251.3 49.3616 253C49.3616 254.84 50.8816 256.12 53.2816 256.12C54.9416 256.12 56.1216 255.56 56.7616 254.6V256H58.5816V249.6C58.5816 246.7 56.9416 245.3 54.0416 245.3ZM53.6016 254.64C52.1416 254.64 51.2616 253.98 51.2616 252.92C51.2616 252.02 51.8016 251.28 53.7016 251.28H56.6616V252.76C56.1816 253.98 55.0416 254.64 53.6016 254.64ZM62.1348 256H64.0548V241.16H62.1348V256ZM76.0407 245.4V247.04C75.1407 245.88 73.7007 245.3 72.1207 245.3C69.0607 245.3 66.7407 247.36 66.7407 250.42C66.7407 253.48 69.0607 255.56 72.1207 255.56C73.6407 255.56 75.0207 255.02 75.9407 253.92V254.76C75.9407 257.16 74.8007 258.32 72.3007 258.32C70.7407 258.32 69.2007 257.78 68.2207 256.94L67.3007 258.42C68.4607 259.46 70.4207 260 72.3607 260C75.9607 260 77.8607 258.3 77.8607 254.56V245.4H76.0407ZM72.3407 253.88C70.2007 253.88 68.6807 252.46 68.6807 250.42C68.6807 248.36 70.2007 246.98 72.3407 246.98C74.4607 246.98 75.9807 248.36 75.9807 250.42C75.9807 252.46 74.4607 253.88 72.3407 253.88ZM89.4893 245.4V250.88C89.4893 253.16 88.2093 254.4 86.2093 254.4C84.3893 254.4 83.3493 253.36 83.3493 251.28V245.4H81.4293V251.5C81.4293 254.62 83.2493 256.12 85.9893 256.12C87.4893 256.12 88.8093 255.5 89.5893 254.4V256H91.4093V245.4H89.4893ZM100.724 245.3C99.0444 245.3 97.6844 245.92 96.9044 247V245.4H95.0644V256H96.9844V250.54C96.9844 248.24 98.3044 247.02 100.344 247.02C102.164 247.02 103.204 248.04 103.204 250.12V256H105.124V249.9C105.124 246.78 103.304 245.3 100.724 245.3ZM113.276 256.12C116.456 256.12 118.776 253.86 118.776 250.7C118.776 247.54 116.456 245.3 113.276 245.3C110.096 245.3 107.756 247.54 107.756 250.7C107.756 253.86 110.096 256.12 113.276 256.12ZM113.276 254.44C111.236 254.44 109.696 252.96 109.696 250.7C109.696 248.44 111.236 246.98 113.276 246.98C115.316 246.98 116.836 248.44 116.836 250.7C116.836 252.96 115.316 254.44 113.276 254.44ZM134.883 241.16V247C134.003 245.86 132.683 245.3 131.183 245.3C128.083 245.3 125.823 247.46 125.823 250.7C125.823 253.94 128.083 256.12 131.183 256.12C132.743 256.12 134.103 255.52 134.963 254.32V256H136.803V241.16H134.883ZM131.343 254.44C129.303 254.44 127.763 252.96 127.763 250.7C127.763 248.44 129.303 246.98 131.343 246.98C133.363 246.98 134.903 248.44 134.903 250.7C134.903 252.96 133.363 254.44 131.343 254.44ZM150.016 250.76C150.016 247.5 147.836 245.3 144.776 245.3C141.716 245.3 139.456 247.56 139.456 250.7C139.456 253.86 141.736 256.12 145.156 256.12C146.916 256.12 148.376 255.52 149.336 254.4L148.276 253.16C147.496 254.02 146.456 254.44 145.216 254.44C143.116 254.44 141.616 253.2 141.376 251.34H149.976C149.996 251.16 150.016 250.92 150.016 250.76ZM144.776 246.92C146.636 246.92 147.976 248.18 148.176 249.96H141.376C141.576 248.16 142.936 246.92 144.776 246.92ZM163.713 245.3C162.033 245.3 160.673 245.92 159.893 247V245.4H158.053V256H159.973V250.54C159.973 248.24 161.293 247.02 163.333 247.02C165.153 247.02 166.193 248.04 166.193 250.12V256H168.113V249.9C168.113 246.78 166.293 245.3 163.713 245.3ZM179.626 245.4V250.88C179.626 253.16 178.346 254.4 176.346 254.4C174.526 254.4 173.486 253.36 173.486 251.28V245.4H171.566V251.5C171.566 254.62 173.386 256.12 176.126 256.12C177.626 256.12 178.946 255.5 179.726 254.4V256H181.546V245.4H179.626ZM194.781 250.76C194.781 247.5 192.601 245.3 189.541 245.3C186.481 245.3 184.221 247.56 184.221 250.7C184.221 253.86 186.501 256.12 189.921 256.12C191.681 256.12 193.141 255.52 194.101 254.4L193.041 253.16C192.261 254.02 191.221 254.44 189.981 254.44C187.881 254.44 186.381 253.2 186.141 251.34H194.741C194.761 251.16 194.781 250.92 194.781 250.76ZM189.541 246.92C191.401 246.92 192.741 248.18 192.941 249.96H186.141C186.341 248.16 187.701 246.92 189.541 246.92ZM200.487 256.12C203.307 256.12 205.067 254.9 205.067 252.98C205.067 248.86 198.347 250.9 198.347 248.4C198.347 247.56 199.167 246.94 200.847 246.94C201.887 246.94 202.947 247.16 203.907 247.78L204.727 246.26C203.807 245.66 202.247 245.3 200.867 245.3C198.147 245.3 196.447 246.58 196.447 248.48C196.447 252.7 203.147 250.64 203.147 253.02C203.147 253.92 202.407 254.46 200.627 254.46C199.247 254.46 197.807 254 196.907 253.36L196.107 254.88C196.987 255.58 198.727 256.12 200.487 256.12ZM212.827 254C212.427 254.32 211.887 254.5 211.327 254.5C210.267 254.5 209.667 253.86 209.667 252.72V246.98H212.707V245.4H209.667V243.08H207.747V245.4H205.947V246.98H207.747V252.8C207.747 254.94 208.967 256.12 211.107 256.12C211.967 256.12 212.847 255.88 213.427 255.38L212.827 254ZM217.588 247.18V245.4H215.748V256H217.668V250.72C217.668 248.4 218.948 247.14 221.008 247.14C221.148 247.14 221.288 247.14 221.448 247.16V245.3C219.588 245.3 218.268 245.94 217.588 247.18ZM228.257 256.12C231.437 256.12 233.757 253.86 233.757 250.7C233.757 247.54 231.437 245.3 228.257 245.3C225.077 245.3 222.737 247.54 222.737 250.7C222.737 253.86 225.077 256.12 228.257 256.12ZM228.257 254.44C226.217 254.44 224.677 252.96 224.677 250.7C224.677 248.44 226.217 246.98 228.257 246.98C230.297 246.98 231.817 248.44 231.817 250.7C231.817 252.96 230.297 254.44 228.257 254.44ZM239.452 256.12C242.272 256.12 244.032 254.9 244.032 252.98C244.032 248.86 237.312 250.9 237.312 248.4C237.312 247.56 238.132 246.94 239.812 246.94C240.852 246.94 241.912 247.16 242.872 247.78L243.692 246.26C242.772 245.66 241.212 245.3 239.832 245.3C237.112 245.3 235.412 246.58 235.412 248.48C235.412 252.7 242.112 250.64 242.112 253.02C242.112 253.92 241.372 254.46 239.592 254.46C238.212 254.46 236.772 254 235.872 253.36L235.072 254.88C235.952 255.58 237.692 256.12 239.452 256.12ZM263.123 250.84H260.463V247.8H258.583V250.84H253.203L260.063 242H257.903L250.743 251.16V252.56H258.523V256H260.463V252.56H263.123V250.84ZM274.413 245.3C272.713 245.3 271.133 245.78 270.033 246.66L270.833 248.1C271.653 247.4 272.933 246.96 274.193 246.96C276.093 246.96 277.033 247.9 277.033 249.52V249.9H273.993C270.833 249.9 269.733 251.3 269.733 253C269.733 254.84 271.253 256.12 273.653 256.12C275.313 256.12 276.493 255.56 277.133 254.6V256H278.953V249.6C278.953 246.7 277.313 245.3 274.413 245.3ZM273.973 254.64C272.513 254.64 271.633 253.98 271.633 252.92C271.633 252.02 272.173 251.28 274.073 251.28H277.033V252.76C276.553 253.98 275.413 254.64 273.973 254.64ZM287.184 256.12C289.084 256.12 290.664 255.32 291.504 253.84L290.044 252.92C289.364 253.96 288.324 254.44 287.164 254.44C285.084 254.44 283.524 253 283.524 250.7C283.524 248.44 285.084 246.98 287.164 246.98C288.324 246.98 289.364 247.46 290.044 248.5L291.504 247.56C290.664 246.08 289.084 245.3 287.184 245.3C283.924 245.3 281.584 247.54 281.584 250.7C281.584 253.86 283.924 256.12 287.184 256.12ZM301.95 245.4V250.88C301.95 253.16 300.67 254.4 298.67 254.4C296.85 254.4 295.81 253.36 295.81 251.28V245.4H293.89V251.5C293.89 254.62 295.71 256.12 298.45 256.12C299.95 256.12 301.27 255.5 302.05 254.4V256H303.87V245.4H301.95ZM317.105 250.76C317.105 247.5 314.925 245.3 311.865 245.3C308.805 245.3 306.545 247.56 306.545 250.7C306.545 253.86 308.825 256.12 312.245 256.12C314.005 256.12 315.465 255.52 316.425 254.4L315.365 253.16C314.585 254.02 313.545 254.44 312.305 254.44C310.205 254.44 308.705 253.2 308.465 251.34H317.065C317.085 251.16 317.105 250.92 317.105 250.76ZM311.865 246.92C313.725 246.92 315.065 248.18 315.265 249.96H308.465C308.665 248.16 310.025 246.92 311.865 246.92ZM321.611 247.18V245.4H319.771V256H321.691V250.72C321.691 248.4 322.971 247.14 325.031 247.14C325.171 247.14 325.311 247.14 325.471 247.16V245.3C323.611 245.3 322.291 245.94 321.611 247.18ZM335.82 241.16V247C334.94 245.86 333.62 245.3 332.12 245.3C329.02 245.3 326.76 247.46 326.76 250.7C326.76 253.94 329.02 256.12 332.12 256.12C333.68 256.12 335.04 255.52 335.9 254.32V256H337.74V241.16H335.82ZM332.28 254.44C330.24 254.44 328.7 252.96 328.7 250.7C328.7 248.44 330.24 246.98 332.28 246.98C334.3 246.98 335.84 248.44 335.84 250.7C335.84 252.96 334.3 254.44 332.28 254.44ZM345.913 256.12C349.093 256.12 351.413 253.86 351.413 250.7C351.413 247.54 349.093 245.3 345.913 245.3C342.733 245.3 340.393 247.54 340.393 250.7C340.393 253.86 342.733 256.12 345.913 256.12ZM345.913 254.44C343.873 254.44 342.333 252.96 342.333 250.7C342.333 248.44 343.873 246.98 345.913 246.98C347.953 246.98 349.473 248.44 349.473 250.7C349.473 252.96 347.953 254.44 345.913 254.44ZM357.108 256.12C359.928 256.12 361.688 254.9 361.688 252.98C361.688 248.86 354.968 250.9 354.968 248.4C354.968 247.56 355.788 246.94 357.468 246.94C358.508 246.94 359.568 247.16 360.528 247.78L361.348 246.26C360.428 245.66 358.868 245.3 357.488 245.3C354.768 245.3 353.068 246.58 353.068 248.48C353.068 252.7 359.768 250.64 359.768 253.02C359.768 253.92 359.028 254.46 357.248 254.46C355.868 254.46 354.428 254 353.528 253.36L352.728 254.88C353.608 255.58 355.348 256.12 357.108 256.12ZM65.904 269.4V271.04C65.004 269.88 63.564 269.3 61.984 269.3C58.924 269.3 56.604 271.36 56.604 274.42C56.604 277.48 58.924 279.56 61.984 279.56C63.504 279.56 64.884 279.02 65.804 277.92V278.76C65.804 281.16 64.664 282.32 62.164 282.32C60.604 282.32 59.064 281.78 58.084 280.94L57.164 282.42C58.324 283.46 60.284 284 62.224 284C65.824 284 67.724 282.3 67.724 278.56V269.4H65.904ZM62.204 277.88C60.064 277.88 58.544 276.46 58.544 274.42C58.544 272.36 60.064 270.98 62.204 270.98C64.324 270.98 65.844 272.36 65.844 274.42C65.844 276.46 64.324 277.88 62.204 277.88ZM80.9726 274.76C80.9726 271.5 78.7926 269.3 75.7326 269.3C72.6726 269.3 70.4126 271.56 70.4126 274.7C70.4126 277.86 72.6926 280.12 76.1126 280.12C77.8726 280.12 79.3326 279.52 80.2926 278.4L79.2326 277.16C78.4526 278.02 77.4126 278.44 76.1726 278.44C74.0726 278.44 72.5726 277.2 72.3326 275.34H80.9326C80.9526 275.16 80.9726 274.92 80.9726 274.76ZM75.7326 270.92C77.5926 270.92 78.9326 272.18 79.1326 273.96H72.3326C72.5326 272.16 73.8926 270.92 75.7326 270.92ZM89.2987 269.3C87.6187 269.3 86.2587 269.92 85.4787 271V269.4H83.6387V280H85.5587V274.54C85.5587 272.24 86.8787 271.02 88.9187 271.02C90.7387 271.02 91.7787 272.04 91.7787 274.12V280H93.6987V273.9C93.6987 270.78 91.8787 269.3 89.2987 269.3ZM106.891 274.76C106.891 271.5 104.711 269.3 101.651 269.3C98.5905 269.3 96.3305 271.56 96.3305 274.7C96.3305 277.86 98.6105 280.12 102.031 280.12C103.791 280.12 105.251 279.52 106.211 278.4L105.151 277.16C104.371 278.02 103.331 278.44 102.091 278.44C99.9905 278.44 98.4905 277.2 98.2505 275.34H106.851C106.871 275.16 106.891 274.92 106.891 274.76ZM101.651 270.92C103.511 270.92 104.851 272.18 105.051 273.96H98.2505C98.4505 272.16 99.8105 270.92 101.651 270.92ZM111.397 271.18V269.4H109.557V280H111.477V274.72C111.477 272.4 112.757 271.14 114.817 271.14C114.957 271.14 115.097 271.14 115.257 271.16V269.3C113.397 269.3 112.077 269.94 111.397 271.18ZM121.464 269.3C119.764 269.3 118.184 269.78 117.084 270.66L117.884 272.1C118.704 271.4 119.984 270.96 121.244 270.96C123.144 270.96 124.084 271.9 124.084 273.52V273.9H121.044C117.884 273.9 116.784 275.3 116.784 277C116.784 278.84 118.304 280.12 120.704 280.12C122.364 280.12 123.544 279.56 124.184 278.6V280H126.004V273.6C126.004 270.7 124.364 269.3 121.464 269.3ZM121.024 278.64C119.564 278.64 118.684 277.98 118.684 276.92C118.684 276.02 119.224 275.28 121.124 275.28H124.084V276.76C123.604 277.98 122.464 278.64 121.024 278.64ZM129.557 280H131.477V265.16H129.557V280ZM144.723 274.76C144.723 271.5 142.543 269.3 139.483 269.3C136.423 269.3 134.163 271.56 134.163 274.7C134.163 277.86 136.443 280.12 139.863 280.12C141.623 280.12 143.083 279.52 144.043 278.4L142.983 277.16C142.203 278.02 141.163 278.44 139.923 278.44C137.823 278.44 136.323 277.2 136.083 275.34H144.683C144.703 275.16 144.723 274.92 144.723 274.76ZM139.483 270.92C141.343 270.92 142.683 272.18 142.883 273.96H136.083C136.283 272.16 137.643 270.92 139.483 270.92ZM150.429 280.12C153.249 280.12 155.009 278.9 155.009 276.98C155.009 272.86 148.289 274.9 148.289 272.4C148.289 271.56 149.109 270.94 150.789 270.94C151.829 270.94 152.889 271.16 153.849 271.78L154.669 270.26C153.749 269.66 152.189 269.3 150.809 269.3C148.089 269.3 146.389 270.58 146.389 272.48C146.389 276.7 153.089 274.64 153.089 277.02C153.089 277.92 152.349 278.46 150.569 278.46C149.189 278.46 147.749 278 146.849 277.36L146.049 278.88C146.929 279.58 148.669 280.12 150.429 280.12ZM157.888 277.38C157.128 277.38 156.548 277.94 156.548 278.74C156.548 279.34 156.888 279.8 157.388 279.98L156.648 282.96H157.908L158.848 280.18C159.108 279.44 159.188 279.14 159.188 278.74C159.188 277.96 158.648 277.38 157.888 277.38ZM172.671 278C172.271 278.32 171.731 278.5 171.171 278.5C170.111 278.5 169.511 277.86 169.511 276.72V270.98H172.551V269.4H169.511V267.08H167.591V269.4H165.791V270.98H167.591V276.8C167.591 278.94 168.811 280.12 170.951 280.12C171.811 280.12 172.691 279.88 173.271 279.38L172.671 278ZM183.552 269.4V274.88C183.552 277.16 182.272 278.4 180.272 278.4C178.452 278.4 177.412 277.36 177.412 275.28V269.4H175.492V275.5C175.492 278.62 177.312 280.12 180.052 280.12C181.552 280.12 182.872 279.5 183.652 278.4V280H185.472V269.4H183.552ZM199.038 280.12C202.218 280.12 204.538 277.86 204.538 274.7C204.538 271.54 202.218 269.3 199.038 269.3C195.858 269.3 193.518 271.54 193.518 274.7C193.518 277.86 195.858 280.12 199.038 280.12ZM199.038 278.44C196.998 278.44 195.458 276.96 195.458 274.7C195.458 272.44 196.998 270.98 199.038 270.98C201.078 270.98 202.598 272.44 202.598 274.7C202.598 276.96 201.078 278.44 199.038 278.44ZM212.813 269.3C211.253 269.3 209.893 269.9 209.033 271.08V269.4H207.193V283.88H209.113V278.4C209.993 279.54 211.313 280.12 212.813 280.12C215.913 280.12 218.173 277.96 218.173 274.7C218.173 271.46 215.913 269.3 212.813 269.3ZM212.653 278.44C210.633 278.44 209.093 276.96 209.093 274.7C209.093 272.46 210.633 270.98 212.653 270.98C214.693 270.98 216.233 272.46 216.233 274.7C216.233 276.96 214.693 278.44 212.653 278.44ZM221.786 267.36C222.546 267.36 223.086 266.8 223.086 266.08C223.086 265.4 222.526 264.86 221.786 264.86C221.046 264.86 220.486 265.42 220.486 266.12C220.486 266.82 221.046 267.36 221.786 267.36ZM220.826 280H222.746V269.4H220.826V280ZM232.072 269.3C230.392 269.3 229.032 269.92 228.252 271V269.4H226.412V280H228.332V274.54C228.332 272.24 229.652 271.02 231.692 271.02C233.512 271.02 234.552 272.04 234.552 274.12V280H236.472V273.9C236.472 270.78 234.652 269.3 232.072 269.3ZM240.985 267.36C241.745 267.36 242.285 266.8 242.285 266.08C242.285 265.4 241.725 264.86 240.985 264.86C240.245 264.86 239.685 265.42 239.685 266.12C239.685 266.82 240.245 267.36 240.985 267.36ZM240.025 280H241.945V269.4H240.025V280ZM248.631 267.86H250.431L253.791 265.26H251.351L248.631 267.86ZM250.151 280.12C253.331 280.12 255.651 277.86 255.651 274.7C255.651 271.54 253.331 269.3 250.151 269.3C246.971 269.3 244.631 271.54 244.631 274.7C244.631 277.86 246.971 280.12 250.151 280.12ZM250.151 278.44C248.111 278.44 246.571 276.96 246.571 274.7C246.571 272.44 248.111 270.98 250.151 270.98C252.191 270.98 253.711 272.44 253.711 274.7C253.711 276.96 252.191 278.44 250.151 278.44ZM263.967 269.3C262.287 269.3 260.927 269.92 260.147 271V269.4H258.307V280H260.227V274.54C260.227 272.24 261.547 271.02 263.587 271.02C265.407 271.02 266.447 272.04 266.447 274.12V280H268.367V273.9C268.367 270.78 266.547 269.3 263.967 269.3ZM286.871 274.76C286.871 271.5 284.691 269.3 281.631 269.3C278.571 269.3 276.311 271.56 276.311 274.7C276.311 277.86 278.591 280.12 282.011 280.12C283.771 280.12 285.231 279.52 286.191 278.4L285.131 277.16C284.351 278.02 283.311 278.44 282.071 278.44C279.971 278.44 278.471 277.2 278.231 275.34H286.831C286.851 275.16 286.871 274.92 286.871 274.76ZM281.631 270.92C283.491 270.92 284.831 272.18 285.031 273.96H278.231C278.431 272.16 279.791 270.92 281.631 270.92ZM292.577 280.12C295.397 280.12 297.157 278.9 297.157 276.98C297.157 272.86 290.437 274.9 290.437 272.4C290.437 271.56 291.257 270.94 292.937 270.94C293.977 270.94 295.037 271.16 295.997 271.78L296.817 270.26C295.897 269.66 294.337 269.3 292.957 269.3C290.237 269.3 288.537 270.58 288.537 272.48C288.537 276.7 295.237 274.64 295.237 277.02C295.237 277.92 294.497 278.46 292.717 278.46C291.337 278.46 289.897 278 288.997 277.36L288.197 278.88C289.077 279.58 290.817 280.12 292.577 280.12ZM309.548 280.12C311.448 280.12 313.028 279.32 313.868 277.84L312.408 276.92C311.728 277.96 310.688 278.44 309.528 278.44C307.448 278.44 305.888 277 305.888 274.7C305.888 272.44 307.448 270.98 309.528 270.98C310.688 270.98 311.728 271.46 312.408 272.5L313.868 271.56C313.028 270.08 311.448 269.3 309.548 269.3C306.288 269.3 303.948 271.54 303.948 274.7C303.948 277.86 306.288 280.12 309.548 280.12ZM316.217 280H318.137V265.16H316.217V280ZM325.663 269.3C323.963 269.3 322.383 269.78 321.283 270.66L322.083 272.1C322.903 271.4 324.183 270.96 325.443 270.96C327.343 270.96 328.283 271.9 328.283 273.52V273.9H325.243C322.083 273.9 320.983 275.3 320.983 277C320.983 278.84 322.503 280.12 324.903 280.12C326.563 280.12 327.743 279.56 328.383 278.6V280H330.203V273.6C330.203 270.7 328.563 269.3 325.663 269.3ZM325.223 278.64C323.763 278.64 322.883 277.98 322.883 276.92C322.883 276.02 323.423 275.28 325.323 275.28H328.283V276.76C327.803 277.98 326.663 278.64 325.223 278.64ZM341.061 269.4L337.341 277.9L333.701 269.4H331.701L336.341 280H338.301L342.941 269.4H341.061ZM354.019 274.76C354.019 271.5 351.839 269.3 348.779 269.3C345.719 269.3 343.459 271.56 343.459 274.7C343.459 277.86 345.739 280.12 349.159 280.12C350.919 280.12 352.379 279.52 353.339 278.4L352.279 277.16C351.499 278.02 350.459 278.44 349.219 278.44C347.119 278.44 345.619 277.2 345.379 275.34H353.979C353.999 275.16 354.019 274.92 354.019 274.76ZM348.779 270.92C350.639 270.92 351.979 272.18 352.179 273.96H345.379C345.579 272.16 346.939 270.92 348.779 270.92ZM95.5868 293.3C94.0268 293.3 92.6668 293.9 91.8068 295.08V293.4H89.9668V307.88H91.8868V302.4C92.7668 303.54 94.0868 304.12 95.5868 304.12C98.6868 304.12 100.947 301.96 100.947 298.7C100.947 295.46 98.6868 293.3 95.5868 293.3ZM95.4268 302.44C93.4068 302.44 91.8668 300.96 91.8668 298.7C91.8668 296.46 93.4068 294.98 95.4268 294.98C97.4668 294.98 99.0068 296.46 99.0068 298.7C99.0068 300.96 97.4668 302.44 95.4268 302.44ZM107.362 293.3C105.662 293.3 104.082 293.78 102.982 294.66L103.782 296.1C104.602 295.4 105.882 294.96 107.142 294.96C109.042 294.96 109.982 295.9 109.982 297.52V297.9H106.942C103.782 297.9 102.682 299.3 102.682 301C102.682 302.84 104.202 304.12 106.602 304.12C108.262 304.12 109.442 303.56 110.082 302.6V304H111.902V297.6C111.902 294.7 110.262 293.3 107.362 293.3ZM106.922 302.64C105.462 302.64 104.582 301.98 104.582 300.92C104.582 300.02 105.122 299.28 107.022 299.28H109.982V300.76C109.502 301.98 108.362 302.64 106.922 302.64ZM117.295 295.18V293.4H115.455V304H117.375V298.72C117.375 296.4 118.655 295.14 120.715 295.14C120.855 295.14 120.995 295.14 121.155 295.16V293.3C119.295 293.3 117.975 293.94 117.295 295.18ZM127.362 293.3C125.662 293.3 124.082 293.78 122.982 294.66L123.782 296.1C124.602 295.4 125.882 294.96 127.142 294.96C129.042 294.96 129.982 295.9 129.982 297.52V297.9H126.942C123.782 297.9 122.682 299.3 122.682 301C122.682 302.84 124.202 304.12 126.602 304.12C128.262 304.12 129.442 303.56 130.082 302.6V304H131.902V297.6C131.902 294.7 130.262 293.3 127.362 293.3ZM126.922 302.64C125.462 302.64 124.582 301.98 124.582 300.92C124.582 300.02 125.122 299.28 127.022 299.28H129.982V300.76C129.502 301.98 128.362 302.64 126.922 302.64ZM140.826 304H142.746V289.16H140.826V304ZM150.272 293.3C148.572 293.3 146.992 293.78 145.892 294.66L146.692 296.1C147.512 295.4 148.792 294.96 150.052 294.96C151.952 294.96 152.892 295.9 152.892 297.52V297.9H149.852C146.692 297.9 145.592 299.3 145.592 301C145.592 302.84 147.112 304.12 149.512 304.12C151.172 304.12 152.352 303.56 152.992 302.6V304H154.812V297.6C154.812 294.7 153.172 293.3 150.272 293.3ZM149.832 302.64C148.372 302.64 147.492 301.98 147.492 300.92C147.492 300.02 148.032 299.28 149.932 299.28H152.892V300.76C152.412 301.98 151.272 302.64 149.832 302.64ZM169.096 302C168.696 302.32 168.156 302.5 167.596 302.5C166.536 302.5 165.936 301.86 165.936 300.72V294.98H168.976V293.4H165.936V291.08H164.016V293.4H162.216V294.98H164.016V300.8C164.016 302.94 165.236 304.12 167.376 304.12C168.236 304.12 169.116 303.88 169.696 303.38L169.096 302ZM173.858 295.18V293.4H172.018V304H173.938V298.72C173.938 296.4 175.218 295.14 177.278 295.14C177.418 295.14 177.558 295.14 177.718 295.16V293.3C175.858 293.3 174.538 293.94 173.858 295.18ZM183.924 293.3C182.224 293.3 180.644 293.78 179.544 294.66L180.344 296.1C181.164 295.4 182.444 294.96 183.704 294.96C185.604 294.96 186.544 295.9 186.544 297.52V297.9H183.504C180.344 297.9 179.244 299.3 179.244 301C179.244 302.84 180.764 304.12 183.164 304.12C184.824 304.12 186.004 303.56 186.644 302.6V304H188.464V297.6C188.464 294.7 186.824 293.3 183.924 293.3ZM183.484 302.64C182.024 302.64 181.144 301.98 181.144 300.92C181.144 300.02 181.684 299.28 183.584 299.28H186.544V300.76C186.064 301.98 184.924 302.64 183.484 302.64ZM197.678 293.3C195.998 293.3 194.638 293.92 193.858 295V293.4H192.018V304H193.938V298.54C193.938 296.24 195.258 295.02 197.298 295.02C199.118 295.02 200.158 296.04 200.158 298.12V304H202.078V297.9C202.078 294.78 200.258 293.3 197.678 293.3ZM208.671 304.12C211.491 304.12 213.251 302.9 213.251 300.98C213.251 296.86 206.531 298.9 206.531 296.4C206.531 295.56 207.351 294.94 209.031 294.94C210.071 294.94 211.131 295.16 212.091 295.78L212.911 294.26C211.991 293.66 210.431 293.3 209.051 293.3C206.331 293.3 204.631 294.58 204.631 296.48C204.631 300.7 211.331 298.64 211.331 301.02C211.331 301.92 210.591 302.46 208.811 302.46C207.431 302.46 205.991 302 205.091 301.36L204.291 302.88C205.171 303.58 206.911 304.12 208.671 304.12ZM219.53 290.62C220.09 290.62 220.61 290.82 221.01 291.12L221.59 289.66C221.05 289.24 220.25 289.04 219.43 289.04C217.17 289.04 215.93 290.4 215.93 292.46V293.4H214.13V294.98H215.93V304H217.85V294.98H220.89V293.4H217.81V292.48C217.81 291.26 218.39 290.62 219.53 290.62ZM227.085 304.12C230.265 304.12 232.585 301.86 232.585 298.7C232.585 295.54 230.265 293.3 227.085 293.3C223.905 293.3 221.565 295.54 221.565 298.7C221.565 301.86 223.905 304.12 227.085 304.12ZM227.085 302.44C225.045 302.44 223.505 300.96 223.505 298.7C223.505 296.44 225.045 294.98 227.085 294.98C229.125 294.98 230.645 296.44 230.645 298.7C230.645 300.96 229.125 302.44 227.085 302.44ZM237.08 295.18V293.4H235.24V304H237.16V298.72C237.16 296.4 238.44 295.14 240.5 295.14C240.64 295.14 240.78 295.14 240.94 295.16V293.3C239.08 293.3 237.76 293.94 237.08 295.18ZM256.567 293.3C254.767 293.3 253.287 294.06 252.487 295.26C251.787 293.94 250.427 293.3 248.807 293.3C247.207 293.3 245.907 293.9 245.147 294.98V293.4H243.307V304H245.227V298.54C245.227 296.24 246.487 295.02 248.407 295.02C250.147 295.02 251.147 296.04 251.147 298.12V304H253.067V298.54C253.067 296.24 254.327 295.02 256.247 295.02C257.987 295.02 258.987 296.04 258.987 298.12V304H260.907V297.9C260.907 294.78 259.147 293.3 256.567 293.3ZM268.299 293.3C266.599 293.3 265.019 293.78 263.919 294.66L264.719 296.1C265.539 295.4 266.819 294.96 268.079 294.96C269.979 294.96 270.919 295.9 270.919 297.52V297.9H267.879C264.719 297.9 263.619 299.3 263.619 301C263.619 302.84 265.139 304.12 267.539 304.12C269.199 304.12 270.379 303.56 271.019 302.6V304H272.839V297.6C272.839 294.7 271.199 293.3 268.299 293.3ZM267.859 302.64C266.399 302.64 265.519 301.98 265.519 300.92C265.519 300.02 266.059 299.28 267.959 299.28H270.919V300.76C270.439 301.98 269.299 302.64 267.859 302.64ZM281.071 304.12C282.971 304.12 284.551 303.32 285.391 301.84L283.931 300.92C283.251 301.96 282.211 302.44 281.051 302.44C278.971 302.44 277.411 301 277.411 298.7C277.411 296.44 278.971 294.98 281.051 294.98C282.211 294.98 283.251 295.46 283.931 296.5L285.391 295.56C284.551 294.08 282.971 293.3 281.071 293.3C277.811 293.3 275.471 295.54 275.471 298.7C275.471 301.86 277.811 304.12 281.071 304.12ZM288.837 291.36C289.597 291.36 290.137 290.8 290.137 290.08C290.137 289.4 289.577 288.86 288.837 288.86C288.097 288.86 287.537 289.42 287.537 290.12C287.537 290.82 288.097 291.36 288.837 291.36ZM287.877 304H289.797V293.4H287.877V304ZM296.483 291.86H298.283L301.643 289.26H299.203L296.483 291.86ZM298.003 304.12C301.183 304.12 303.503 301.86 303.503 298.7C303.503 295.54 301.183 293.3 298.003 293.3C294.823 293.3 292.483 295.54 292.483 298.7C292.483 301.86 294.823 304.12 298.003 304.12ZM298.003 302.44C295.963 302.44 294.423 300.96 294.423 298.7C294.423 296.44 295.963 294.98 298.003 294.98C300.043 294.98 301.563 296.44 301.563 298.7C301.563 300.96 300.043 302.44 298.003 302.44ZM311.818 293.3C310.138 293.3 308.778 293.92 307.998 295V293.4H306.158V304H308.078V298.54C308.078 296.24 309.398 295.02 311.438 295.02C313.258 295.02 314.298 296.04 314.298 298.12V304H316.218V297.9C316.218 294.78 314.398 293.3 311.818 293.3ZM320.231 304.12C320.951 304.12 321.551 303.54 321.551 302.74C321.551 301.94 320.951 301.38 320.231 301.38C319.491 301.38 318.871 301.94 318.871 302.74C318.871 303.54 319.491 304.12 320.231 304.12Z" fill="black"/>
<path d="M37.7136 40V45.2H43.3136V68H49.7936V40H37.7136ZM58.3377 68.32C60.4977 68.32 62.2177 66.68 62.2177 64.4C62.2177 62.08 60.4977 60.56 58.3377 60.56C56.1777 60.56 54.4577 62.08 54.4577 64.4C54.4577 66.68 56.1777 68.32 58.3377 68.32Z" fill="black"/>
<defs>
<filter id="filter0_d_0_1" x="0" y="0" width="413" height="353" filterUnits="userSpaceOnUse" color-interpolation-filters="sRGB">
<feFlood flood-opacity="0" result="BackgroundImageFix"/>
<feColorMatrix in="SourceAlpha" type="matrix" values="0 0 0 0 0 0 0 0 0 0 0 0 0 0 0 0 0 0 127 0" result="hardAlpha"/>
<feOffset dy="4"/>
<feGaussianBlur stdDeviation="2"/>
<feComposite in2="hardAlpha" operator="out"/>
<feColorMatrix type="matrix" values="0 0 0 0 0 0 0 0 0 0 0 0 0 0 0 0 0 0 0.25 0"/>
<feBlend mode="normal" in2="BackgroundImageFix" result="effect1_dropShadow_0_1"/>
<feBlend mode="normal" in="SourceGraphic" in2="effect1_dropShadow_0_1" result="shape"/>
</filter>
<clipPath id="clip0_0_1">
<rect width="122" height="122" fill="white" transform="translate(146 63)"/>
</clipPath>
</defs>
</svg>
