<svg width="13" height="11" viewBox="0 0 13 11" fill="none" xmlns="http://www.w3.org/2000/svg">
<path d="M12.0993 1.23753C11.759 1.76944 11.3475 2.22266 10.865 2.59717C10.8701 2.67316 10.8726 2.78715 10.8726 2.93912C10.8726 3.64473 10.7761 4.34898 10.5831 5.05187C10.3901 5.75476 10.0967 6.42916 9.70307 7.07506C9.30941 7.72096 8.84083 8.29223 8.29732 8.78887C7.75382 9.28551 7.09857 9.68173 6.33157 9.97755C5.56457 10.2734 4.74423 10.4213 3.87056 10.4213C2.49402 10.4213 1.23431 10.0278 0.0914307 9.24073C0.269212 9.26244 0.467312 9.2733 0.685729 9.2733C1.82861 9.2733 2.84705 8.89878 3.74103 8.14975C3.20769 8.1389 2.73022 7.96385 2.30862 7.62462C1.88703 7.28539 1.5975 6.85252 1.44003 6.32603C1.60765 6.35317 1.76258 6.36674 1.9048 6.36674C2.12322 6.36674 2.3391 6.33689 2.55244 6.27718C1.98354 6.15235 1.51241 5.84975 1.13907 5.36939C0.765731 4.88904 0.57906 4.33134 0.57906 3.69629V3.66373C0.924465 3.86998 1.29527 3.98125 1.69147 3.99753C1.35622 3.75871 1.08955 3.44662 0.891448 3.06125C0.693349 2.67588 0.594299 2.25794 0.594299 1.80744C0.594299 1.3298 0.706047 0.887436 0.929544 0.480355C1.54416 1.28909 2.29211 1.93635 3.1734 2.42213C4.05469 2.90791 4.9982 3.17794 6.00394 3.23222C5.9633 3.02597 5.94299 2.82514 5.94299 2.62974C5.94299 1.90242 6.18299 1.2823 6.663 0.769382C7.14301 0.256461 7.72334 0 8.40399 0C9.11512 0 9.7145 0.276815 10.2021 0.830445C10.7558 0.716462 11.2764 0.50478 11.7641 0.195399C11.5761 0.819589 11.2155 1.30266 10.6821 1.64461C11.1545 1.59033 11.6269 1.45463 12.0993 1.23753Z" fill="white"/>
</svg>
